<svg width="386" height="261" viewBox="0 0 386 261" fill="none" xmlns="http://www.w3.org/2000/svg">
<g id="Business Platform">
<g id="Element Copy">
<ellipse id="Shape" cx="175.861" cy="39.3648" rx="28.629" ry="57.0645" transform="rotate(90 175.861 39.3648)" fill="#BDDEFF"/>
<path id="Shape_2" fill-rule="evenodd" clip-rule="evenodd" d="M358.51 85.4633C358.51 86.1894 357.921 86.778 357.195 86.778C356.469 86.778 355.88 86.1894 355.88 85.4633C355.88 84.7372 356.469 84.1486 357.195 84.1486C357.921 84.1486 358.51 84.7372 358.51 85.4633ZM358.51 80.2044C358.51 80.9305 357.921 81.5191 357.195 81.5191C356.469 81.5191 355.88 80.9305 355.88 80.2044C355.88 79.4783 356.469 78.8897 357.195 78.8897C357.921 78.8897 358.51 79.4783 358.51 80.2044ZM358.51 74.9456C358.51 75.6717 357.921 76.2603 357.195 76.2603C356.469 76.2603 355.88 75.6717 355.88 74.9456C355.88 74.2195 356.469 73.6309 357.195 73.6309C357.921 73.6309 358.51 74.2195 358.51 74.9456ZM358.51 69.6868C358.51 70.4129 357.921 71.0015 357.195 71.0015C356.469 71.0015 355.88 70.4129 355.88 69.6868C355.88 68.9607 356.469 68.3721 357.195 68.3721C357.921 68.3721 358.51 68.9607 358.51 69.6868ZM358.51 64.4279C358.51 65.154 357.921 65.7426 357.195 65.7426C356.469 65.7426 355.88 65.154 355.88 64.4279C355.88 63.7018 356.469 63.1132 357.195 63.1132C357.921 63.1132 358.51 63.7018 358.51 64.4279ZM358.51 59.1691C358.51 59.8952 357.921 60.4838 357.195 60.4838C356.469 60.4838 355.88 59.8952 355.88 59.1691C355.88 58.443 356.469 57.8544 357.195 57.8544C357.921 57.8544 358.51 58.443 358.51 59.1691ZM363.769 85.4633C363.769 86.1894 363.181 86.778 362.454 86.778C361.728 86.778 361.14 86.1894 361.14 85.4633C361.14 84.7372 361.728 84.1486 362.454 84.1486C363.181 84.1486 363.769 84.7372 363.769 85.4633ZM363.769 80.2044C363.769 80.9305 363.181 81.5191 362.454 81.5191C361.728 81.5191 361.14 80.9305 361.14 80.2044C361.14 79.4783 361.728 78.8897 362.454 78.8897C363.181 78.8897 363.769 79.4783 363.769 80.2044ZM363.769 74.9456C363.769 75.6717 363.181 76.2603 362.454 76.2603C361.728 76.2603 361.14 75.6717 361.14 74.9456C361.14 74.2195 361.728 73.6309 362.454 73.6309C363.181 73.6309 363.769 74.2195 363.769 74.9456ZM363.769 69.6868C363.769 70.4129 363.181 71.0015 362.454 71.0015C361.728 71.0015 361.14 70.4129 361.14 69.6868C361.14 68.9607 361.728 68.3721 362.454 68.3721C363.181 68.3721 363.769 68.9607 363.769 69.6868ZM363.769 64.4279C363.769 65.154 363.181 65.7426 362.454 65.7426C361.728 65.7426 361.14 65.154 361.14 64.4279C361.14 63.7018 361.728 63.1132 362.454 63.1132C363.181 63.1132 363.769 63.7018 363.769 64.4279ZM363.769 59.1691C363.769 59.8952 363.181 60.4838 362.454 60.4838C361.728 60.4838 361.14 59.8952 361.14 59.1691C361.14 58.443 361.728 57.8544 362.454 57.8544C363.181 57.8544 363.769 58.443 363.769 59.1691ZM369.028 85.4633C369.028 86.1894 368.44 86.778 367.714 86.778C366.987 86.778 366.399 86.1894 366.399 85.4633C366.399 84.7372 366.987 84.1486 367.714 84.1486C368.44 84.1486 369.028 84.7372 369.028 85.4633ZM369.028 80.2044C369.028 80.9305 368.44 81.5191 367.714 81.5191C366.987 81.5191 366.399 80.9305 366.399 80.2044C366.399 79.4783 366.987 78.8897 367.714 78.8897C368.44 78.8897 369.028 79.4783 369.028 80.2044ZM369.028 74.9456C369.028 75.6717 368.44 76.2603 367.714 76.2603C366.987 76.2603 366.399 75.6717 366.399 74.9456C366.399 74.2195 366.987 73.6309 367.714 73.6309C368.44 73.6309 369.028 74.2195 369.028 74.9456ZM369.028 69.6868C369.028 70.4129 368.44 71.0015 367.714 71.0015C366.987 71.0015 366.399 70.4129 366.399 69.6868C366.399 68.9607 366.987 68.3721 367.714 68.3721C368.44 68.3721 369.028 68.9607 369.028 69.6868ZM369.028 64.4279C369.028 65.154 368.44 65.7426 367.714 65.7426C366.987 65.7426 366.399 65.154 366.399 64.4279C366.399 63.7018 366.987 63.1132 367.714 63.1132C368.44 63.1132 369.028 63.7018 369.028 64.4279ZM369.028 59.1691C369.028 59.8952 368.44 60.4838 367.714 60.4838C366.987 60.4838 366.399 59.8952 366.399 59.1691C366.399 58.443 366.987 57.8544 367.714 57.8544C368.44 57.8544 369.028 58.443 369.028 59.1691ZM374.287 85.4633C374.287 86.1894 373.699 86.778 372.973 86.778C372.247 86.778 371.658 86.1894 371.658 85.4633C371.658 84.7372 372.247 84.1486 372.973 84.1486C373.699 84.1486 374.287 84.7372 374.287 85.4633ZM374.287 80.2044C374.287 80.9305 373.699 81.5191 372.973 81.5191C372.247 81.5191 371.658 80.9305 371.658 80.2044C371.658 79.4783 372.247 78.8897 372.973 78.8897C373.699 78.8897 374.287 79.4783 374.287 80.2044ZM374.287 74.9456C374.287 75.6717 373.699 76.2603 372.973 76.2603C372.247 76.2603 371.658 75.6717 371.658 74.9456C371.658 74.2195 372.247 73.6309 372.973 73.6309C373.699 73.6309 374.287 74.2195 374.287 74.9456ZM374.287 69.6868C374.287 70.4129 373.699 71.0015 372.973 71.0015C372.247 71.0015 371.658 70.4129 371.658 69.6868C371.658 68.9607 372.247 68.3721 372.973 68.3721C373.699 68.3721 374.287 68.9607 374.287 69.6868ZM374.287 64.4279C374.287 65.154 373.699 65.7426 372.973 65.7426C372.247 65.7426 371.658 65.154 371.658 64.4279C371.658 63.7018 372.247 63.1132 372.973 63.1132C373.699 63.1132 374.287 63.7018 374.287 64.4279ZM374.287 59.1691C374.287 59.8952 373.699 60.4838 372.973 60.4838C372.247 60.4838 371.658 59.8952 371.658 59.1691C371.658 58.443 372.247 57.8544 372.973 57.8544C373.699 57.8544 374.287 58.443 374.287 59.1691ZM379.547 85.4633C379.547 86.1894 378.958 86.778 378.232 86.778C377.506 86.778 376.917 86.1894 376.917 85.4633C376.917 84.7372 377.506 84.1486 378.232 84.1486C378.958 84.1486 379.547 84.7372 379.547 85.4633ZM379.547 80.2044C379.547 80.9305 378.958 81.5191 378.232 81.5191C377.506 81.5191 376.917 80.9305 376.917 80.2044C376.917 79.4783 377.506 78.8897 378.232 78.8897C378.958 78.8897 379.547 79.4783 379.547 80.2044ZM379.547 74.9456C379.547 75.6717 378.958 76.2603 378.232 76.2603C377.506 76.2603 376.917 75.6717 376.917 74.9456C376.917 74.2195 377.506 73.6309 378.232 73.6309C378.958 73.6309 379.547 74.2195 379.547 74.9456ZM379.547 69.6868C379.547 70.4129 378.958 71.0015 378.232 71.0015C377.506 71.0015 376.917 70.4129 376.917 69.6868C376.917 68.9607 377.506 68.3721 378.232 68.3721C378.958 68.3721 379.547 68.9607 379.547 69.6868ZM379.547 64.4279C379.547 65.154 378.958 65.7426 378.232 65.7426C377.506 65.7426 376.917 65.154 376.917 64.4279C376.917 63.7018 377.506 63.1132 378.232 63.1132C378.958 63.1132 379.547 63.7018 379.547 64.4279ZM379.547 59.1691C379.547 59.8952 378.958 60.4838 378.232 60.4838C377.506 60.4838 376.917 59.8952 376.917 59.1691C376.917 58.443 377.506 57.8544 378.232 57.8544C378.958 57.8544 379.547 58.443 379.547 59.1691ZM384.806 85.4633C384.806 86.1894 384.217 86.778 383.491 86.778C382.765 86.778 382.176 86.1894 382.176 85.4633C382.176 84.7372 382.765 84.1486 383.491 84.1486C384.217 84.1486 384.806 84.7372 384.806 85.4633ZM384.806 80.2044C384.806 80.9305 384.217 81.5191 383.491 81.5191C382.765 81.5191 382.176 80.9305 382.176 80.2044C382.176 79.4783 382.765 78.8897 383.491 78.8897C384.217 78.8897 384.806 79.4783 384.806 80.2044ZM384.806 74.9456C384.806 75.6717 384.217 76.2603 383.491 76.2603C382.765 76.2603 382.176 75.6717 382.176 74.9456C382.176 74.2195 382.765 73.6309 383.491 73.6309C384.217 73.6309 384.806 74.2195 384.806 74.9456ZM384.806 69.6868C384.806 70.4129 384.217 71.0015 383.491 71.0015C382.765 71.0015 382.176 70.4129 382.176 69.6868C382.176 68.9607 382.765 68.3721 383.491 68.3721C384.217 68.3721 384.806 68.9607 384.806 69.6868ZM384.806 64.4279C384.806 65.154 384.217 65.7426 383.491 65.7426C382.765 65.7426 382.176 65.154 382.176 64.4279C382.176 63.7018 382.765 63.1132 383.491 63.1132C384.217 63.1132 384.806 63.7018 384.806 64.4279ZM384.806 59.1691C384.806 59.8952 384.217 60.4838 383.491 60.4838C382.765 60.4838 382.176 59.8952 382.176 59.1691C382.176 58.443 382.765 57.8544 383.491 57.8544C384.217 57.8544 384.806 58.443 384.806 59.1691Z" fill="white"/>
<ellipse id="Shape_3" cx="65.6041" cy="232.468" rx="21.031" ry="41.939" transform="rotate(90 65.6041 232.468)" fill="#00ADFF"/>
</g>
<g id="Plant Copy">
<path id="Shape_4" fill-rule="evenodd" clip-rule="evenodd" d="M110.447 56.117C93.6626 63.6974 80.2441 63.6014 70.1912 55.8291C60.1382 48.0567 53.7749 36.9891 51.1012 22.6262C82.5251 13.1897 102.307 24.3533 110.447 56.117Z" fill="#EE342C"/>
<path id="Shape_5" d="M85.6643 42.4874C82.0418 40.4323 78.0137 38.155 73.5802 35.6555L63.296 38.1181C63.1135 38.1618 62.9303 38.0488 62.8868 37.8657C62.8433 37.6826 62.9559 37.4987 63.1383 37.4551L72.7076 35.1636C67.1743 32.0451 61.0242 28.5886 54.2574 24.7941C54.0937 24.7023 54.0351 24.4947 54.1266 24.3303C54.2181 24.166 54.425 24.1072 54.5887 24.1991C66.9441 31.1273 77.2435 36.9289 85.4876 41.6042L84.4239 31.1418C84.3779 30.6897 85.0536 30.6205 85.0996 31.0726L86.2122 42.0152C97.2036 48.2516 104.432 52.4257 107.898 54.5382C108.058 54.6359 108.109 54.8456 108.012 55.0065C107.914 55.1674 107.705 55.2186 107.545 55.1208C105.471 53.8568 102.045 51.8516 97.2664 49.1054C97.2538 49.1119 97.2407 49.1176 97.2271 49.1226L87.8286 52.5672C87.6524 52.6318 87.4574 52.5408 87.3931 52.3639C87.3287 52.1871 87.4194 51.9914 87.5956 51.9269L96.4981 48.6641C93.4438 46.9111 89.8687 44.8728 85.7729 42.549C85.7334 42.5358 85.6964 42.5153 85.6643 42.4874Z" fill="white"/>
<path id="Shape_6" fill-rule="evenodd" clip-rule="evenodd" d="M106.688 65.6081C89.4353 59.0717 79.9889 49.5068 78.3489 36.9135C76.709 24.3201 80.0119 12.0157 88.2576 0C117.201 15.5898 123.345 37.4591 106.688 65.6081Z" fill="#FDA0A2"/>
<path id="Shape_7" d="M99.5807 38.5611C102.951 50.7686 105.116 58.8479 106.076 62.8006C106.12 62.9834 106.009 63.1678 105.827 63.2125C105.645 63.2571 105.462 63.1451 105.417 62.9623C104.843 60.5972 103.835 56.7486 102.395 51.4168C102.381 51.4125 102.368 51.4072 102.355 51.4011L93.3038 47.168C93.1342 47.0886 93.0606 46.886 93.1395 46.7153C93.2184 46.5447 93.4199 46.4706 93.5896 46.55L102.163 50.5597C101.241 47.1534 100.152 43.1757 98.8956 38.6269C98.877 38.5895 98.8653 38.5487 98.8623 38.5062C97.7514 34.4831 96.5106 30.0152 95.14 25.1025L86.1542 19.5467C85.9948 19.4482 85.945 19.2383 86.043 19.078C86.141 18.9176 86.3496 18.8676 86.5091 18.9661L94.8702 24.1357C93.1589 18.005 91.25 11.1978 89.1437 3.71407C89.0927 3.53299 89.1974 3.34463 89.3774 3.29337C89.5575 3.2421 89.7447 3.34735 89.7957 3.52844C93.6416 17.1928 96.8291 28.6019 99.3585 37.7565L105.962 29.6051C106.248 29.2529 106.773 29.6834 106.487 30.0356L99.5807 38.5611Z" fill="white"/>
<path id="Shape_8" fill-rule="evenodd" clip-rule="evenodd" d="M123.867 77.4063C109.619 89.0958 96.6424 92.492 84.9374 87.5951C73.2324 82.6982 64.24 73.6575 57.9602 60.473C85.8604 43.1832 107.829 48.8277 123.867 77.4063Z" fill="#FC5274"/>
<path id="Shape_9" d="M96.7791 69.8181C108.996 72.9779 117.048 75.1261 120.938 76.2632C121.118 76.3157 121.221 76.5044 121.169 76.6846C121.116 76.8648 120.928 76.9682 120.748 76.9156C118.42 76.2353 114.596 75.1914 109.276 73.784C109.266 73.7935 109.255 73.8024 109.243 73.8108L101.059 79.5626C100.905 79.6705 100.694 79.6333 100.586 79.4797C100.478 79.326 100.515 79.1141 100.669 79.0063L108.421 73.558C105.021 72.6606 101.045 71.6233 96.4927 70.446C96.4512 70.4435 96.4101 70.4334 96.372 70.4148C92.3457 69.3737 87.8708 68.2236 82.9472 66.9644L73.655 71.9999C73.4902 72.0893 73.2842 72.0279 73.195 71.8628C73.1058 71.6977 73.1672 71.4915 73.332 71.4021L81.9782 66.7167C75.8335 65.1462 69.0064 63.41 61.4969 61.5079C61.3152 61.4619 61.2051 61.2771 61.2511 61.0951C61.297 60.9131 61.4816 60.8029 61.6633 60.8489C75.3748 64.3219 86.8114 67.2421 95.9738 69.6099L92.2508 59.8086C92.0899 59.385 92.7243 59.1434 92.8852 59.5669L96.7791 69.8181Z" fill="white"/>
</g>
<g id="Data Copy">
<path id="Shape_10" fill-rule="evenodd" clip-rule="evenodd" d="M105.973 44.7328H347.53C350.824 44.7328 353.495 47.4031 353.495 50.6971V214.717H100.009V50.6971C100.009 47.4031 102.679 44.7328 105.973 44.7328Z" fill="#3B97FC"/>
<path id="Shape_11" fill-rule="evenodd" clip-rule="evenodd" d="M100.009 77.5368H353.495V247.521C353.495 250.815 350.824 253.486 347.53 253.486H105.973C102.679 253.486 100.009 250.815 100.009 247.521V77.5368Z" fill="white"/>
<path id="Shape_12" fill-rule="evenodd" clip-rule="evenodd" d="M222.102 153.395H341.566V241.557H222.102V153.395Z" fill="#5EB2FD"/>
<path id="Shape_13" fill-rule="evenodd" clip-rule="evenodd" d="M230.927 158.95H260.749V188.772H230.927V158.95Z" fill="#3B97FC"/>
<path id="Shape_14" fill-rule="evenodd" clip-rule="evenodd" d="M269.695 158.95H299.517V163.722H269.695V158.95ZM269.695 169.09H332.321V173.861H269.695V169.09ZM269.695 179.826H332.321V184.597H269.695V179.826Z" fill="#3B97FC"/>
<path id="Shape_15" fill-rule="evenodd" clip-rule="evenodd" d="M269.695 200.701H299.517V205.472H269.695V200.701ZM269.695 210.84H332.321V215.612H269.695V210.84ZM269.695 221.576H332.321V226.348H269.695V221.576Z" fill="#3B97FC"/>
<path id="Shape_16" fill-rule="evenodd" clip-rule="evenodd" d="M230.927 200.701H260.749V230.523H230.927V200.701Z" fill="#3B97FC"/>
<path id="Shape_17" fill-rule="evenodd" clip-rule="evenodd" d="M222.102 89.4655H371.388V140.948H222.102V89.4655Z" fill="#FDA0A2"/>
<path id="Shape_18" fill-rule="evenodd" clip-rule="evenodd" d="M227.945 95.4299H242.856V110.341H227.945V95.4299ZM248.82 95.4299H305.482V100.201H248.82V95.4299ZM248.82 105.569H365.125V110.341H248.82V105.569ZM227.945 120.182H242.856V135.093H227.945V120.182ZM248.82 120.182H305.482V124.954H248.82V120.182ZM248.82 130.62H365.125V135.391H248.82V130.62Z" fill="#EE3A33"/>
<path id="Shape_19" fill-rule="evenodd" clip-rule="evenodd" d="M84.7999 89.4655H207.368C209.015 89.4655 210.35 90.8007 210.35 92.4477V154.477C210.35 156.124 209.015 157.459 207.368 157.459H84.7999C83.1529 157.459 81.8177 156.124 81.8177 154.477V92.4477C81.8177 90.8007 83.1529 89.4655 84.7999 89.4655Z" fill="#0F55BE"/>
<path id="Shape_20" fill-rule="evenodd" clip-rule="evenodd" d="M111.938 141.356C102.056 141.356 94.0447 133.345 94.0447 123.462C94.0447 113.58 102.056 105.569 111.938 105.569C121.82 105.569 129.831 113.58 129.831 123.462C129.831 133.345 121.82 141.356 111.938 141.356ZM145.04 105.868H197.228C197.887 105.868 198.421 106.402 198.421 107.06V112.13C198.421 112.789 197.887 113.323 197.228 113.323H145.04C144.381 113.323 143.847 112.789 143.847 112.13V107.06C143.847 106.402 144.381 105.868 145.04 105.868ZM145.04 133.9H197.228C197.887 133.9 198.421 134.434 198.421 135.093V140.163C198.421 140.821 197.887 141.356 197.228 141.356H145.04C144.381 141.356 143.847 140.821 143.847 140.163V135.093C143.847 134.434 144.381 133.9 145.04 133.9ZM145.04 119.884H197.228C197.887 119.884 198.421 120.418 198.421 121.077V126.146C198.421 126.805 197.887 127.339 197.228 127.339H145.04C144.381 127.339 143.847 126.805 143.847 126.146V121.077C143.847 120.418 144.381 119.884 145.04 119.884Z" fill="#52D7FD"/>
<path id="Shape_21" fill-rule="evenodd" clip-rule="evenodd" d="M84.7999 169.388H207.368C209.015 169.388 210.35 170.723 210.35 172.37V234.4C210.35 236.047 209.015 237.382 207.368 237.382H84.7999C83.1529 237.382 81.8177 236.047 81.8177 234.4V172.37C81.8177 170.723 83.1529 169.388 84.7999 169.388Z" fill="#BDDEFF"/>
<path id="Shape_22" fill-rule="evenodd" clip-rule="evenodd" d="M94.0447 227.055H93.7464V186.983H94.0447V227.055ZM101.5 227.055H101.202V186.983H101.5V227.055ZM108.657 227.055H108.956V186.983H108.657V227.055ZM116.411 227.055H116.113V186.983H116.411V227.055ZM123.568 227.055H123.867V186.983H123.568V227.055ZM131.322 227.055H131.024V186.983H131.322V227.055ZM138.479 227.055H138.777V186.983H138.479V227.055ZM146.233 227.055H145.935V186.983H146.233V227.055ZM153.39 227.055H153.688V186.983H153.39V227.055ZM161.144 227.055H160.846V186.983H161.144V227.055ZM168.301 227.055H168.599V186.983H168.301V227.055ZM176.055 227.055H175.757V186.983H176.055V227.055ZM183.212 227.055H183.51V186.983H183.212V227.055ZM190.966 227.055H190.667V186.983H190.966V227.055ZM198.123 227.055H198.421V186.983H198.123V227.055Z" fill="#211D41"/>
<path id="Shape_23" opacity="0.5" fill-rule="evenodd" clip-rule="evenodd" d="M92.2555 224.622C92.2555 224.622 99.877 207.292 121.655 211.97C143.433 216.647 153.02 206.646 163.043 196.582C173.066 186.517 183.617 184.449 199.614 193.767V227.065H92.2555V224.622Z" fill="#FC5274"/>
<path id="Shape_24" d="M93.3592 226.331C93.1093 226.94 92.4125 227.232 91.803 226.982C91.1934 226.732 90.9019 226.035 91.1518 225.426C96.4606 212.479 106.842 207.568 121.905 210.803C131.45 212.854 138.987 212.148 145.584 209.047C150.691 206.646 154.389 203.577 161.16 196.782C161.383 196.558 162.144 195.794 162.198 195.74C173.155 184.738 184.47 183.565 200.214 192.736C200.784 193.068 200.976 193.798 200.645 194.367C200.313 194.937 199.583 195.129 199.014 194.798C184.185 186.16 174.06 187.21 163.888 197.423C163.835 197.477 163.073 198.242 162.85 198.466C159.517 201.81 157.586 203.647 155.343 205.509C152.437 207.92 149.612 209.789 146.599 211.206C139.512 214.537 131.444 215.292 121.404 213.136C107.43 210.134 98.2124 214.495 93.3592 226.331Z" fill="#EE3A33"/>
</g>
<g id="Men Copy">
<path id="Shape_25" fill-rule="evenodd" clip-rule="evenodd" d="M373.073 172.712L376.309 179.338C377.937 182.673 377.338 186.667 374.803 189.376L366.611 198.133L363.321 193.604L369.195 185.422L366.611 178.976L373.073 172.712Z" fill="#FF7070"/>
<path id="Shape_26" fill-rule="evenodd" clip-rule="evenodd" d="M357.427 152.646L365.156 156.099L374.708 172.627L368.385 180.65L357.427 168.734L357.427 152.646Z" fill="#4A1C25"/>
<path id="Shape_27" fill-rule="evenodd" clip-rule="evenodd" d="M369.451 244.673H375.897V251.123H369.451V244.673Z" fill="#FE9F9F"/>
<path id="Shape_28" fill-rule="evenodd" clip-rule="evenodd" d="M375.181 244.315L379.775 244.315C380.566 244.315 381.207 244.956 381.207 245.746V258.452C381.207 258.956 380.707 259.365 380.091 259.365C377.692 259.365 377.379 257.543 376.613 255.381L375.181 251.089V244.315Z" fill="#EE3A33"/>
<path id="Shape_29" fill-rule="evenodd" clip-rule="evenodd" d="M323.971 241.855V248.301H317.521V241.855H323.971Z" fill="#FE9F9F"/>
<path id="Shape_30" fill-rule="evenodd" clip-rule="evenodd" d="M314.337 214.824C314.332 214.697 314.329 214.57 314.329 214.443C314.329 209.502 318.334 205.497 323.275 205.497H346.889L368.018 204.974V213.834C368.018 218.775 364.012 222.781 359.071 222.781H327.972L325.468 243.502H315.557L314.337 214.824Z" fill="#211D41"/>
<path id="Shape_31" fill-rule="evenodd" clip-rule="evenodd" d="M371.096 252.945H339.341C339.049 252.945 338.757 252.924 338.467 252.881C335.209 252.398 332.958 249.366 333.441 246.107L339.446 205.554L368.039 205.083L350.234 242.993H371.096V252.945Z" fill="#0F55BE"/>
<path id="Shape_32" fill-rule="evenodd" clip-rule="evenodd" d="M324.269 247.521V252.116C324.269 252.907 323.628 253.547 322.838 253.547H310.132C309.628 253.547 309.22 253.048 309.22 252.431C309.22 250.032 311.041 249.72 313.203 248.954L317.495 247.521H324.269Z" fill="#EE3A33"/>
<path id="Shape_33" fill-rule="evenodd" clip-rule="evenodd" d="M333.812 153.93V166.108L315.393 163.484L292.912 146.823C289.654 147.601 287.162 147.601 285.437 146.823C283.712 146.045 282.557 144.085 281.973 140.941H288.025V138.175L290.422 141.206L315.749 153.93H333.812Z" fill="#FE9F9F"/>
<path id="Shape_34" fill-rule="evenodd" clip-rule="evenodd" d="M348.036 153.116C347.798 149.481 347.09 147.419 345.91 146.928C344.139 146.192 343.003 145.823 343.234 143.961C343.465 142.098 342.965 141.471 342.194 141.102C341.422 140.733 340.803 139.549 343.004 138.282C344.472 137.437 345.314 135.409 345.53 132.196C353.466 129.603 357.866 131.09 358.73 136.656C359.594 142.222 359.003 146.571 356.956 149.703V153.116H348.036Z" fill="#FE9F9F"/>
<path id="Shape_35" fill-rule="evenodd" clip-rule="evenodd" d="M329.05 151.969C341.707 151.969 349.385 151.969 352.083 151.969C353.392 151.969 354.701 151.969 356.01 151.969C362.927 151.969 368.535 157.577 368.535 164.494V205.609H339.426V166.552H329.05L329.05 151.969Z" fill="#EE3A33"/>
<path id="Shape_36" fill-rule="evenodd" clip-rule="evenodd" d="M357.077 149.631C354.632 149.556 353.234 149.134 352.885 148.365C352.36 147.211 352.291 145.153 352.408 144.504C352.525 143.854 353.266 144.126 353.85 144.126C354.435 144.126 355.342 142.811 354.737 141.821C354.131 140.832 353.293 140.987 352.885 141.163C352.476 141.339 351.494 140.847 351.823 139.249C352.152 137.652 352.887 136.156 351.823 136.156C350.759 136.156 344.797 135.472 344.482 131.425C344.168 127.378 346.517 125.085 350.288 126.931C354.06 128.778 355.274 128.606 358.116 129.254C360.957 129.903 363.786 130.698 364.385 135.682C364.983 140.666 362.993 143.202 360.701 145.01C358.41 146.819 358.935 147.373 358.618 148.365C358.406 149.026 357.892 149.448 357.077 149.631Z" fill="#221E41"/>
<path id="Shape_37" fill-rule="evenodd" clip-rule="evenodd" d="M351.379 209.475L351.979 207.476L351.694 207.39L351.094 209.39L351.379 209.475ZM349.921 214.331L350.521 212.331L350.236 212.246L349.635 214.245L349.921 214.331ZM349.063 217.187L348.463 219.186L348.177 219.101L348.778 217.101L349.063 217.187ZM347.005 224.042L347.605 222.043L347.32 221.957L346.719 223.956L347.005 224.042ZM346.147 226.898L345.547 228.897L345.261 228.812L345.862 226.812L346.147 226.898ZM344.089 233.753L344.689 231.754L344.404 231.668L343.803 233.667L344.089 233.753ZM343.231 236.609L342.631 238.609L342.345 238.523L342.946 236.523L343.231 236.609ZM341.173 243.464L341.773 241.465L341.488 241.379L340.887 243.378L341.173 243.464ZM341.35 246.231C341.706 246.799 342.254 247.225 342.893 247.428L342.803 247.712C342.096 247.488 341.491 247.017 341.098 246.39L341.35 246.231ZM347.901 247.561H345.813V247.859H347.901V247.561ZM350.883 247.561H352.971V247.859H350.883V247.561ZM358.04 247.561H355.953V247.859H358.04V247.561ZM361.023 247.561H363.11V247.859H361.023V247.561ZM367.256 247.561H366.092V247.859H367.256V247.561Z" fill="#A587FF"/>
</g>
<g id="Women Copy">
<path id="Shape_38" fill-rule="evenodd" clip-rule="evenodd" d="M47.7774 249.365C49.339 248.902 51.138 248.808 53.1747 249.084C56.2296 249.499 59.7246 250.209 58.6414 251.94C57.558 253.67 52.5895 253.742 50.1281 253.365C47.6666 252.988 47.3796 253.205 45.033 253.365C42.6863 253.525 42.2735 253.378 42.2735 252.045C42.2735 250.713 42.2735 249.063 42.2735 248.328C42.2736 247.593 42.3836 246.953 44.095 247.576C45.2359 247.991 46.4634 248.587 47.7774 249.365Z" fill="#EE3A33"/>
<path id="Shape_39" fill-rule="evenodd" clip-rule="evenodd" d="M42.2842 241.541L48.7341 241.541V248.191L52.517 249.006C49.7807 250.281 46.642 250.38 43.8309 249.28L42.2842 248.675L42.2842 241.541Z" fill="#FE9F9F"/>
<path id="Shape_40" fill-rule="evenodd" clip-rule="evenodd" d="M6.08582 248.794C7.70961 248.665 9.48883 248.947 11.4235 249.641C14.3255 250.682 17.5964 252.103 16.1771 253.571C14.7576 255.038 9.88271 254.076 7.55347 253.195C5.22424 252.314 4.8984 252.467 2.56972 252.135C0.241035 251.804 -0.132187 251.575 0.144926 250.271C0.422011 248.967 0.764982 247.354 0.917854 246.635C1.07073 245.916 1.31135 245.313 2.8559 246.278C3.8856 246.921 4.96224 247.76 6.08582 248.794Z" fill="#EE3A33"/>
<path id="Shape_41" fill-rule="evenodd" clip-rule="evenodd" d="M2.33941 239.998L8.6483 241.339L7.26574 247.844L10.7964 249.428C7.85492 250.106 4.76427 249.55 2.24323 247.89L0.85614 246.976L2.33941 239.998Z" fill="#FE9F9F"/>
<path id="Shape_42" fill-rule="evenodd" clip-rule="evenodd" d="M8.89233 245.648L0.789688 243.477L7.56616 168.156L32.3752 175.344L8.89233 245.648Z" fill="#1E1539"/>
<path id="Shape_43" fill-rule="evenodd" clip-rule="evenodd" d="M40.7262 144.48L44.1467 137.239L59.3664 147.894L75.5547 149.923V154.536L58.8452 155.137C57.6023 155.182 56.3765 154.837 55.3393 154.15L40.7262 144.48Z" fill="#211D41"/>
<path id="Shape_44" fill-rule="evenodd" clip-rule="evenodd" d="M49.8379 244.723H41.2123L36.0304 207.435L19.2875 196.67C9.8196 190.582 5.12766 179.255 7.51767 168.255L35.0149 176.111L51.7234 201.933C52.3909 202.965 52.705 204.185 52.6183 205.411L49.8379 244.723Z" fill="#0F55BE"/>
<path id="Shape_45" fill-rule="evenodd" clip-rule="evenodd" d="M72.8569 148.109L78.4784 148.395L80.8867 142.068C81.2124 141.195 81.5749 140.759 81.9742 140.759C82.5731 140.759 82.6414 142.027 82.6073 143.302C82.588 144.019 82.3644 146.554 81.9363 150.907C81.789 152.405 80.549 153.558 79.0447 153.597L72.2747 153.77L72.8569 148.109Z" fill="#211D41"/>
<path id="Shape_46" fill-rule="evenodd" clip-rule="evenodd" d="M73.1551 146.021L78.7766 146.308L81.1849 139.98C81.5106 139.108 81.8731 138.672 82.2724 138.672C82.8713 138.672 82.9396 139.939 82.9055 141.214C82.8863 141.931 82.6626 144.466 82.2345 148.82C82.0873 150.317 80.8473 151.471 79.3429 151.509L72.5729 151.682L73.1551 146.021Z" fill="#FE9F9F"/>
<path id="Shape_47" fill-rule="evenodd" clip-rule="evenodd" d="M40.8958 124.355L33.8011 122.449L34.5107 119.11C32.5085 115.593 32.5085 111.202 34.5107 105.936C36.513 100.671 41.4409 99.685 49.2945 102.977V107.962L50.5581 111.547L48.8487 112.062C48.6114 113.324 48.4573 114.156 48.3865 114.556C48.0449 116.487 46.9889 117.801 44.7404 117.801C43.2414 117.801 41.9599 119.985 40.8958 124.355Z" fill="#FE9F9F"/>
<path id="Shape_48" fill-rule="evenodd" clip-rule="evenodd" d="M36.8868 121.19C41.1691 122.476 49.868 129.673 62.9835 142.781L75.6424 144.406V152.382H60.5562C58.8883 152.382 57.2587 151.882 55.8773 150.948C52.6541 148.767 49.431 146.586 46.2079 144.406C45.085 147.054 43.1346 148.932 40.3568 150.037L35.0196 176.169L6.90253 168.635L17.3137 129.869C18.6508 124.89 22.9018 121.239 28.0254 120.669C31.493 120.283 34.4468 120.457 36.8868 121.19Z" fill="#00ADFF"/>
<path id="Shape_49" fill-rule="evenodd" clip-rule="evenodd" d="M18.4639 174.095L18.6873 173.897L20.0707 175.461L19.8474 175.658L18.4639 174.095ZM21.8237 177.892L22.0471 177.694L23.4305 179.257L23.2072 179.455L21.8237 177.892ZM25.4069 181.49L25.1835 181.688L26.567 183.251L26.7903 183.054L25.4069 181.49ZM28.5433 185.485L28.7667 185.287L30.1501 186.85L29.9268 187.048L28.5433 185.485ZM32.1265 189.083L31.9031 189.281L33.2866 190.844L33.5099 190.647L32.1265 189.083ZM35.2629 193.078L35.4863 192.88L36.8697 194.443L36.6464 194.641L35.2629 193.078ZM38.8461 196.677L38.6227 196.874L40.0062 198.437L40.2295 198.24L38.8461 196.677ZM41.9825 200.671L42.2059 200.473L42.7464 201.084C43.0329 201.408 43.2955 201.751 43.5325 202.111L43.2834 202.275C43.0542 201.927 42.8002 201.595 42.5231 201.282L41.9825 200.671ZM44.7527 204.881L44.4636 204.954C44.6318 205.618 44.722 206.301 44.7316 206.989L45.0297 206.985C45.0198 206.274 44.9266 205.568 44.7527 204.881ZM44.7472 209.977L45.0454 209.975L45.0561 212.063L44.7579 212.064L44.7472 209.977ZM45.0714 215.045L44.7732 215.046L44.7838 217.134L45.0821 217.132L45.0714 215.045ZM44.7991 220.116L45.0973 220.114L45.108 222.202L44.8098 222.203L44.7991 220.116ZM45.1233 225.184L44.8251 225.186L44.8358 227.273L45.134 227.272L45.1233 225.184ZM44.851 230.255L45.1493 230.254L45.1599 232.341L44.8617 232.343L44.851 230.255ZM45.1752 235.323L44.877 235.325L44.8877 237.412L45.1859 237.411L45.1752 235.323Z" fill="#FFEBF7"/>
<path id="Shape_50" fill-rule="evenodd" clip-rule="evenodd" d="M51.3593 103.479C51.206 105.629 49.9907 106.697 47.7136 106.683C44.298 106.661 40.5948 105.76 39.8283 108.483C39.0618 111.205 42.2159 115.94 38.5631 118.162C34.9103 120.384 35.3257 124.366 37.1458 128.459C38.966 132.553 34.2306 139.577 27.4812 140.646C22.9816 141.359 20.1461 139.724 18.9746 135.743C18.763 131.444 20.0091 127.785 22.7129 124.765C26.7686 120.236 28.9131 117.591 29.0044 110.197C29.0958 102.803 30.2001 98.0052 37.1458 96.9051C44.0916 95.805 45.4624 96.5368 48.4892 98.0253C50.5071 99.0176 51.4638 100.836 51.3593 103.479Z" fill="#EE3A33"/>
</g>
</g>
</svg>
