<svg width="386" height="257" viewBox="0 0 386 257" fill="none" xmlns="http://www.w3.org/2000/svg">
<g id="Time Management">
<g id="Ornament Copy">
<ellipse id="Shape" cx="338.371" cy="232.805" rx="23.2556" ry="46.2284" transform="rotate(90 338.371 232.805)" fill="#66D4FF"/>
<g id="Plant">
<path id="Shape_2" fill-rule="evenodd" clip-rule="evenodd" d="M327.635 225.003C335.062 196.142 353.111 185.998 381.782 194.573C379.343 207.623 373.537 217.679 364.365 224.741C355.192 231.803 342.949 231.89 327.635 225.003Z" fill="#EE342C"/>
<path id="Shape_3" d="M349.771 212.128L350.786 202.176C350.828 201.765 351.445 201.828 351.403 202.239L350.432 211.754C357.957 207.502 367.358 202.226 378.635 195.925C378.784 195.841 378.973 195.895 379.057 196.044C379.14 196.194 379.087 196.382 378.937 196.466C372.761 199.917 367.147 203.061 362.097 205.897L370.831 207.981C370.998 208.021 371.101 208.188 371.061 208.354C371.021 208.521 370.854 208.624 370.687 208.584L361.3 206.344C357.254 208.617 353.577 210.689 350.271 212.558C350.242 212.583 350.208 212.602 350.172 212.614C346.433 214.727 343.17 216.581 340.382 218.175L348.508 221.143C348.669 221.201 348.752 221.379 348.693 221.54C348.634 221.701 348.456 221.784 348.295 221.725L339.717 218.592C339.705 218.588 339.693 218.582 339.681 218.577C335.32 221.074 332.192 222.898 330.299 224.047C330.153 224.136 329.962 224.09 329.874 223.943C329.785 223.797 329.831 223.606 329.978 223.518C333.141 221.596 339.738 217.8 349.771 212.128Z" fill="white"/>
<path id="Shape_4" fill-rule="evenodd" clip-rule="evenodd" d="M330.981 233.706C315.825 208.047 321.415 188.112 347.752 173.901C355.255 184.854 358.26 196.07 356.768 207.55C355.276 219.029 346.68 227.748 330.981 233.706Z" fill="#FDA0A2"/>
<path id="Shape_5" d="M337.53 208.95L331.211 201.195C330.95 200.875 331.43 200.483 331.691 200.803L337.733 208.218C340.047 199.891 342.963 189.513 346.482 177.083C346.529 176.918 346.7 176.822 346.865 176.869C347.03 176.916 347.125 177.087 347.079 177.252C345.152 184.059 343.405 190.251 341.839 195.828L349.489 191.126C349.635 191.036 349.826 191.082 349.916 191.227C350.005 191.373 349.96 191.564 349.814 191.654L341.593 196.708C340.339 201.177 339.203 205.241 338.187 208.9C338.184 208.939 338.174 208.976 338.157 209.01C337.008 213.148 336.011 216.766 335.167 219.865L343.011 216.217C343.166 216.145 343.351 216.213 343.423 216.368C343.495 216.523 343.428 216.707 343.273 216.78L334.991 220.63C334.979 220.636 334.967 220.641 334.955 220.644C333.637 225.495 332.715 228.995 332.19 231.147C332.149 231.313 331.981 231.415 331.815 231.374C331.649 231.334 331.547 231.166 331.587 231C332.466 227.404 334.446 220.055 337.53 208.95Z" fill="white"/>
<path id="Shape_6" fill-rule="evenodd" clip-rule="evenodd" d="M315.391 244.368C330.035 218.413 350.094 213.286 375.57 228.989C369.836 240.963 361.625 249.174 350.937 253.621C340.249 258.069 328.401 254.984 315.391 244.368Z" fill="#FC5274"/>
<path id="Shape_7" d="M340.105 237.661L343.662 228.311C343.809 227.925 344.388 228.145 344.241 228.531L340.841 237.471C349.209 235.311 359.655 232.648 372.179 229.48C372.345 229.438 372.514 229.539 372.556 229.705C372.598 229.871 372.497 230.039 372.331 230.081C365.472 231.816 359.236 233.4 353.624 234.832L361.521 239.106C361.672 239.187 361.728 239.375 361.646 239.526C361.565 239.677 361.377 239.733 361.226 239.651L352.739 235.058C348.242 236.207 344.154 237.256 340.477 238.205C340.442 238.222 340.405 238.231 340.367 238.234C336.209 239.308 332.577 240.254 329.471 241.072L336.552 246.042C336.692 246.14 336.726 246.333 336.628 246.473C336.529 246.613 336.336 246.647 336.196 246.549L328.721 241.303C328.71 241.295 328.7 241.287 328.69 241.278C323.831 242.562 320.338 243.514 318.212 244.135C318.048 244.183 317.876 244.088 317.828 243.924C317.78 243.76 317.874 243.587 318.038 243.54C321.591 242.502 328.946 240.543 340.105 237.661Z" fill="white"/>
</g>
<path id="Shape_8" fill-rule="evenodd" clip-rule="evenodd" d="M199.711 53.4968C199.711 54.2516 199.099 54.8634 198.344 54.8634C197.59 54.8634 196.978 54.2516 196.978 53.4968C196.978 52.7421 197.59 52.1303 198.344 52.1303C199.099 52.1303 199.711 52.7421 199.711 53.4968ZM199.711 48.0305C199.711 48.7853 199.099 49.3971 198.344 49.3971C197.59 49.3971 196.978 48.7853 196.978 48.0305C196.978 47.2758 197.59 46.664 198.344 46.664C199.099 46.664 199.711 47.2758 199.711 48.0305ZM199.711 42.5642C199.711 43.319 199.099 43.9308 198.344 43.9308C197.59 43.9308 196.978 43.319 196.978 42.5642C196.978 41.8095 197.59 41.1976 198.344 41.1976C199.099 41.1976 199.711 41.8095 199.711 42.5642ZM199.711 37.0979C199.711 37.8527 199.099 38.4645 198.344 38.4645C197.59 38.4645 196.978 37.8527 196.978 37.0979C196.978 36.3432 197.59 35.7313 198.344 35.7313C199.099 35.7313 199.711 36.3432 199.711 37.0979ZM199.711 31.6316C199.711 32.3863 199.099 32.9982 198.344 32.9982C197.59 32.9982 196.978 32.3863 196.978 31.6316C196.978 30.8769 197.59 30.265 198.344 30.265C199.099 30.265 199.711 30.8769 199.711 31.6316ZM199.711 26.1653C199.711 26.92 199.099 27.5319 198.344 27.5319C197.59 27.5319 196.978 26.92 196.978 26.1653C196.978 25.4106 197.59 24.7987 198.344 24.7987C199.099 24.7987 199.711 25.4106 199.711 26.1653ZM205.178 53.4968C205.178 54.2516 204.566 54.8634 203.811 54.8634C203.056 54.8634 202.444 54.2516 202.444 53.4968C202.444 52.7421 203.056 52.1303 203.811 52.1303C204.566 52.1303 205.178 52.7421 205.178 53.4968ZM205.178 48.0305C205.178 48.7853 204.566 49.3971 203.811 49.3971C203.056 49.3971 202.444 48.7853 202.444 48.0305C202.444 47.2758 203.056 46.664 203.811 46.664C204.566 46.664 205.178 47.2758 205.178 48.0305ZM205.178 42.5642C205.178 43.319 204.566 43.9308 203.811 43.9308C203.056 43.9308 202.444 43.319 202.444 42.5642C202.444 41.8095 203.056 41.1976 203.811 41.1976C204.566 41.1976 205.178 41.8095 205.178 42.5642ZM205.178 37.0979C205.178 37.8527 204.566 38.4645 203.811 38.4645C203.056 38.4645 202.444 37.8527 202.444 37.0979C202.444 36.3432 203.056 35.7313 203.811 35.7313C204.566 35.7313 205.178 36.3432 205.178 37.0979ZM205.178 31.6316C205.178 32.3863 204.566 32.9982 203.811 32.9982C203.056 32.9982 202.444 32.3863 202.444 31.6316C202.444 30.8769 203.056 30.265 203.811 30.265C204.566 30.265 205.178 30.8769 205.178 31.6316ZM205.178 26.1653C205.178 26.92 204.566 27.5319 203.811 27.5319C203.056 27.5319 202.444 26.92 202.444 26.1653C202.444 25.4106 203.056 24.7987 203.811 24.7987C204.566 24.7987 205.178 25.4106 205.178 26.1653ZM210.644 53.4968C210.644 54.2516 210.032 54.8634 209.278 54.8634C208.523 54.8634 207.911 54.2516 207.911 53.4968C207.911 52.7421 208.523 52.1303 209.278 52.1303C210.032 52.1303 210.644 52.7421 210.644 53.4968ZM210.644 48.0305C210.644 48.7853 210.032 49.3971 209.278 49.3971C208.523 49.3971 207.911 48.7853 207.911 48.0305C207.911 47.2758 208.523 46.664 209.278 46.664C210.032 46.664 210.644 47.2758 210.644 48.0305ZM210.644 42.5642C210.644 43.319 210.032 43.9308 209.278 43.9308C208.523 43.9308 207.911 43.319 207.911 42.5642C207.911 41.8095 208.523 41.1976 209.278 41.1976C210.032 41.1976 210.644 41.8095 210.644 42.5642ZM210.644 37.0979C210.644 37.8527 210.032 38.4645 209.278 38.4645C208.523 38.4645 207.911 37.8527 207.911 37.0979C207.911 36.3432 208.523 35.7313 209.278 35.7313C210.032 35.7313 210.644 36.3432 210.644 37.0979ZM210.644 31.6316C210.644 32.3863 210.032 32.9982 209.278 32.9982C208.523 32.9982 207.911 32.3863 207.911 31.6316C207.911 30.8769 208.523 30.265 209.278 30.265C210.032 30.265 210.644 30.8769 210.644 31.6316ZM210.644 26.1653C210.644 26.92 210.032 27.5319 209.278 27.5319C208.523 27.5319 207.911 26.92 207.911 26.1653C207.911 25.4106 208.523 24.7987 209.278 24.7987C210.032 24.7987 210.644 25.4106 210.644 26.1653ZM216.111 53.4968C216.111 54.2516 215.499 54.8634 214.744 54.8634C213.989 54.8634 213.378 54.2516 213.378 53.4968C213.378 52.7421 213.989 52.1303 214.744 52.1303C215.499 52.1303 216.111 52.7421 216.111 53.4968ZM216.111 48.0305C216.111 48.7853 215.499 49.3971 214.744 49.3971C213.989 49.3971 213.378 48.7853 213.378 48.0305C213.378 47.2758 213.989 46.664 214.744 46.664C215.499 46.664 216.111 47.2758 216.111 48.0305ZM216.111 42.5642C216.111 43.319 215.499 43.9308 214.744 43.9308C213.989 43.9308 213.378 43.319 213.378 42.5642C213.378 41.8095 213.989 41.1976 214.744 41.1976C215.499 41.1976 216.111 41.8095 216.111 42.5642ZM216.111 37.0979C216.111 37.8527 215.499 38.4645 214.744 38.4645C213.989 38.4645 213.378 37.8527 213.378 37.0979C213.378 36.3432 213.989 35.7313 214.744 35.7313C215.499 35.7313 216.111 36.3432 216.111 37.0979ZM216.111 31.6316C216.111 32.3863 215.499 32.9982 214.744 32.9982C213.989 32.9982 213.378 32.3863 213.378 31.6316C213.378 30.8769 213.989 30.265 214.744 30.265C215.499 30.265 216.111 30.8769 216.111 31.6316ZM216.111 26.1653C216.111 26.92 215.499 27.5319 214.744 27.5319C213.989 27.5319 213.378 26.92 213.378 26.1653C213.378 25.4106 213.989 24.7987 214.744 24.7987C215.499 24.7987 216.111 25.4106 216.111 26.1653ZM221.578 53.4968C221.578 54.2516 220.966 54.8634 220.211 54.8634C219.456 54.8634 218.844 54.2516 218.844 53.4968C218.844 52.7421 219.456 52.1303 220.211 52.1303C220.966 52.1303 221.578 52.7421 221.578 53.4968ZM221.578 48.0305C221.578 48.7853 220.966 49.3971 220.211 49.3971C219.456 49.3971 218.844 48.7853 218.844 48.0305C218.844 47.2758 219.456 46.664 220.211 46.664C220.966 46.664 221.578 47.2758 221.578 48.0305ZM221.578 42.5642C221.578 43.319 220.966 43.9308 220.211 43.9308C219.456 43.9308 218.844 43.319 218.844 42.5642C218.844 41.8095 219.456 41.1976 220.211 41.1976C220.966 41.1976 221.578 41.8095 221.578 42.5642ZM221.578 37.0979C221.578 37.8527 220.966 38.4645 220.211 38.4645C219.456 38.4645 218.844 37.8527 218.844 37.0979C218.844 36.3432 219.456 35.7313 220.211 35.7313C220.966 35.7313 221.578 36.3432 221.578 37.0979ZM221.578 31.6316C221.578 32.3863 220.966 32.9982 220.211 32.9982C219.456 32.9982 218.844 32.3863 218.844 31.6316C218.844 30.8769 219.456 30.265 220.211 30.265C220.966 30.265 221.578 30.8769 221.578 31.6316ZM221.578 26.1653C221.578 26.92 220.966 27.5319 220.211 27.5319C219.456 27.5319 218.844 26.92 218.844 26.1653C218.844 25.4106 219.456 24.7987 220.211 24.7987C220.966 24.7987 221.578 25.4106 221.578 26.1653ZM227.044 53.4968C227.044 54.2516 226.432 54.8634 225.678 54.8634C224.923 54.8634 224.311 54.2516 224.311 53.4968C224.311 52.7421 224.923 52.1303 225.678 52.1303C226.432 52.1303 227.044 52.7421 227.044 53.4968ZM227.044 48.0305C227.044 48.7853 226.432 49.3971 225.678 49.3971C224.923 49.3971 224.311 48.7853 224.311 48.0305C224.311 47.2758 224.923 46.664 225.678 46.664C226.432 46.664 227.044 47.2758 227.044 48.0305ZM227.044 42.5642C227.044 43.319 226.432 43.9308 225.678 43.9308C224.923 43.9308 224.311 43.319 224.311 42.5642C224.311 41.8095 224.923 41.1976 225.678 41.1976C226.432 41.1976 227.044 41.8095 227.044 42.5642ZM227.044 37.0979C227.044 37.8527 226.432 38.4645 225.678 38.4645C224.923 38.4645 224.311 37.8527 224.311 37.0979C224.311 36.3432 224.923 35.7313 225.678 35.7313C226.432 35.7313 227.044 36.3432 227.044 37.0979ZM227.044 31.6316C227.044 32.3863 226.432 32.9982 225.678 32.9982C224.923 32.9982 224.311 32.3863 224.311 31.6316C224.311 30.8769 224.923 30.265 225.678 30.265C226.432 30.265 227.044 30.8769 227.044 31.6316ZM227.044 26.1653C227.044 26.92 226.432 27.5319 225.678 27.5319C224.923 27.5319 224.311 26.92 224.311 26.1653C224.311 25.4106 224.923 24.7987 225.678 24.7987C226.432 24.7987 227.044 25.4106 227.044 26.1653Z" fill="#CDCBDF"/>
<ellipse id="Shape_9" cx="209.486" cy="81.2158" rx="35.6481" ry="71.0952" transform="rotate(90 209.486 81.2158)" fill="#0B3B85"/>
<path id="Shape_10" fill-rule="evenodd" clip-rule="evenodd" d="M72.0541 256.047C72.0541 244.748 81.2139 235.588 92.5131 235.588H313.532C313.532 246.887 304.372 256.047 293.073 256.047H72.0541Z" fill="#FDA0A2"/>
</g>
<g id="Note Copy">
<path id="Shape_11" fill-rule="evenodd" clip-rule="evenodd" d="M213.407 95.475H333.371C336.11 95.475 338.33 97.6956 338.33 100.435V250.945C338.33 253.684 336.11 255.905 333.371 255.905H213.407C210.668 255.905 208.447 253.684 208.447 250.945V100.435C208.447 97.6956 210.668 95.475 213.407 95.475Z" fill="white"/>
<path id="Shape_12" fill-rule="evenodd" clip-rule="evenodd" d="M220.593 107.884H266.448V114.833H220.593V107.884ZM220.593 125.008H325.937V131.957H220.593V125.008ZM220.593 139.651H308.586V146.6H220.593V139.651ZM220.593 154.542H325.937V161.491H220.593V154.542ZM220.593 169.184H286.278V176.133H220.593V169.184ZM220.593 183.827H325.937V190.776H220.593V183.827ZM220.593 198.469H318.501V205.418H220.593V198.469ZM220.593 213.112H325.937V220.061H220.593V213.112ZM220.593 227.754H308.586V234.703H220.593V227.754Z" fill="#BDDEFF"/>
</g>
<g id="Women Copy">
<path id="Shape_13" fill-rule="evenodd" clip-rule="evenodd" d="M324.183 134.586L323.179 127.055L329.639 126.661L330.715 134.586H324.183Z" fill="#FE9F9F"/>
<path id="Shape_14" fill-rule="evenodd" clip-rule="evenodd" d="M323.528 133.454L330.553 132.963L335.106 134.137C337.404 134.775 339.315 134.967 339.489 137.455C339.534 138.094 339.147 138.641 338.624 138.678L325.449 139.599C324.63 139.656 323.918 139.038 323.861 138.219C323.782 137.093 323.704 135.968 323.625 134.843L323.528 133.454Z" fill="#23213A"/>
<path id="Shape_15" fill-rule="evenodd" clip-rule="evenodd" d="M318.394 110.332L312.638 91.9441L261.133 78.6652L285.729 70.5843L321.852 76.1233C325.749 76.7208 328.7 79.9572 328.938 83.8927L331.723 130.11L322.669 131.051L318.394 110.332Z" fill="#23213A"/>
<path id="Shape_16" fill-rule="evenodd" clip-rule="evenodd" d="M302.846 73.5389L282.817 79.1789L269.288 58.5607L265.794 26.4132C275.843 28.4698 282.207 41.7582 284.884 66.2784L302.846 73.5389Z" fill="#23213A"/>
<path id="Shape_17" fill-rule="evenodd" clip-rule="evenodd" d="M312.464 141.096L311.399 133.564L318.028 133.17L318.906 141.096H312.464Z" fill="#FE9F9F"/>
<path id="Shape_18" fill-rule="evenodd" clip-rule="evenodd" d="M319.663 135.892L311.008 136.825L306.516 95.7354H262.889C255.827 94.2251 251.471 88.7866 249.821 79.4197C247.346 65.3695 237.846 27.9737 260.101 26.1086C282.355 24.2436 280.781 50.6537 280.781 59.6711C280.781 65.6828 280.781 71.1444 280.781 76.056L312.874 82.0267C316.117 82.6302 318.494 85.4238 318.571 88.7222L319.663 135.892Z" fill="#00ADFF"/>
<path id="Shape_19" fill-rule="evenodd" clip-rule="evenodd" d="M320.024 136.077L311.008 136.825L306.516 95.7354H262.889C255.827 94.2252 251.471 88.7866 249.821 79.4198C260.625 78.5281 271.588 77.4069 282.708 76.056L312.976 81.991C316.172 82.6176 318.509 85.3721 318.606 88.627L320.024 136.077Z" fill="#312C74"/>
<path id="Shape_20" fill-rule="evenodd" clip-rule="evenodd" d="M265.078 79.6782L265.187 79.9633L265.477 79.8519L265.367 79.5667L265.078 79.6782ZM267.767 84.6214C267.289 84.0665 266.859 83.47 266.484 82.8379L266.751 82.6797C267.117 83.2961 267.535 83.8779 268.002 84.419L267.767 84.6214ZM270.096 86.7234C270.698 87.1431 271.336 87.5095 272.001 87.8182L272.132 87.5369C271.482 87.2359 270.861 86.8785 270.274 86.4692L270.096 86.7234ZM277.178 88.9804C276.441 88.9745 275.71 88.9043 274.991 88.7712L275.048 88.4664C275.749 88.5962 276.462 88.6647 277.181 88.6704L277.178 88.9804ZM280.28 88.9807H282.45V88.6708H280.28V88.9807ZM287.719 88.9807H285.55V88.6708H287.719V88.9807ZM290.819 88.9807H292.989V88.6708H290.819V88.9807ZM298.259 88.9807H296.089V88.6708H298.259V88.9807ZM301.359 88.9807H303.529V88.6708H301.359V88.9807ZM308.798 88.9807H306.628V88.6708H308.798V88.9807ZM312.232 91.4266L312.254 91.7318L312.563 91.7095L312.541 91.4043C312.493 90.7328 312.22 90.11 311.773 89.6235L311.545 89.8333C311.945 90.2686 312.189 90.8255 312.232 91.4266ZM312.632 96.9879L312.477 94.8236L312.786 94.8014L312.942 96.9657L312.632 96.9879ZM312.855 100.08L313.01 102.244L313.32 102.222L313.164 100.058L312.855 100.08ZM313.389 107.5L313.233 105.336L313.542 105.314L313.698 107.478L313.389 107.5ZM313.611 110.592L313.767 112.756L314.076 112.734L313.92 110.57L313.611 110.592ZM314.145 118.012L313.989 115.848L314.298 115.826L314.454 117.99L314.145 118.012ZM314.367 121.104L314.523 123.269L314.832 123.246L314.676 121.082L314.367 121.104ZM314.901 128.525L314.745 126.36L315.055 126.338L315.21 128.503L314.901 128.525ZM315.279 133.781L315.123 131.617L315.433 131.594L315.588 133.759L315.279 133.781Z" fill="#A587FF"/>
<path id="Shape_21" fill-rule="evenodd" clip-rule="evenodd" d="M311.749 139.964L318.773 139.473L323.327 140.647C325.625 141.284 327.536 141.476 327.71 143.964C327.755 144.603 327.367 145.151 326.845 145.187L313.67 146.109C312.85 146.166 312.139 145.548 312.082 144.728C312.003 143.603 311.924 142.478 311.846 141.353L311.749 139.964Z" fill="#23213A"/>
<path id="Shape_22" fill-rule="evenodd" clip-rule="evenodd" d="M283.456 72.441L252.45 67.9234L248.72 58.3976L257.742 39.8971V63.2364L283.456 72.441Z" fill="#23213A"/>
<path id="Shape_23" fill-rule="evenodd" clip-rule="evenodd" d="M299.619 82.7406H272.763L272.763 80.9042L299.619 77.2457L304.701 75.7291H318.948V79.5086L318.563 81.2695L299.619 82.7406Z" fill="#EE3A33"/>
<path id="Shape_24" fill-rule="evenodd" clip-rule="evenodd" d="M291.557 75.7291H318.948V79.5086L300.243 80.9042H272.763L291.557 75.7291Z" fill="white"/>
<path id="Shape_25" fill-rule="evenodd" clip-rule="evenodd" d="M288.468 78.2762C288.422 78.5375 288.84 78.8992 289.666 79.5638C291.398 80.9571 289.549 80.7414 287.892 79.6524C286.235 78.5635 286.049 77.9635 281.611 77.3366C277.174 76.7097 268.27 76.356 261.691 75.6985C257.305 75.2601 252.519 72.9972 245.002 70.8927V53.3321L255.362 54.3374L253.357 64.8809C265.929 68.71 274.69 71.0611 279.641 71.934C284.591 72.8069 288.152 73.4347 290.321 73.8173C291.868 74.6056 293.271 75.997 294.528 77.9913C294.841 78.612 294.672 78.8189 294.023 78.6119C293.048 78.3014 291.933 76.1668 290.225 75.5605C292.063 77.0281 293.208 78.4375 293.696 79.4675C294.428 81.0125 292.306 79.078 291.572 78.3572C289.736 76.9779 289.116 76.6164 289.712 77.2729C290.606 78.2575 291.447 79.0563 292.106 79.784C292.765 80.5117 291.707 80.3379 290.793 79.7624C289.879 79.187 288.514 78.0149 288.468 78.2762Z" fill="#FE9F9F"/>
<path id="Shape_26" fill-rule="evenodd" clip-rule="evenodd" d="M326.206 53.5486L318.948 79.5086L300.243 80.9042L308.06 51.8737L326.206 53.5486Z" fill="#EE3A33"/>
<path id="Shape_27" fill-rule="evenodd" clip-rule="evenodd" d="M256.064 58.2727L255.428 64.4766L283.518 72.441L281.402 78.1975L248.398 74.1865C245.088 73.7842 242.689 70.8353 242.968 67.5122C244.05 54.6587 244.756 46.9617 245.088 44.4214C247.523 25.7455 257.975 30.1437 257.975 39.6774C257.975 42.7211 257.338 48.9196 256.064 58.2727Z" fill="#00ADFF"/>
<path id="Shape_28" fill-rule="evenodd" clip-rule="evenodd" d="M258.408 16.4571C260.832 10.2388 263.534 7.12962 266.512 7.12962C269.491 7.12962 271.301 8.74722 271.943 11.9824L273.84 16.118C273.983 16.4292 273.846 16.7973 273.535 16.9401C273.481 16.9647 273.425 16.9815 273.366 16.99L271.943 17.1974C271.943 18.7082 271.724 20.2309 271.288 21.7656C270.851 23.3003 269.259 24.2524 266.512 24.622C266.428 26.0243 266.386 26.7255 266.386 26.7255C272.384 29.5734 268.895 35.8204 263.833 34.4532C260.458 33.5417 258.926 30.9655 259.237 26.7244V19.6303L258.408 16.4571Z" fill="#FE9F9F"/>
<path id="Shape_29" fill-rule="evenodd" clip-rule="evenodd" d="M271.73 10.8494C269.075 11.8203 266.691 12.6469 264.579 13.3293C261.41 14.3529 261.191 17.0275 261.95 18.9472C262.71 20.8668 267.122 27.2786 261.054 30.3784C254.986 33.4783 245.388 39.1741 245.388 42.9808C243.018 36.1417 243.723 30.778 247.5 26.8896C253.166 21.057 254.633 19.9586 253.902 14.2675C253.171 8.5765 257.58 1.89778 263.957 1.89778C270.334 1.89778 273.055 3.35644 274.063 6.30141C274.735 8.26472 273.958 9.78073 271.73 10.8494Z" fill="#EE3A33"/>
</g>
<g id="Calendar Copy">
<path id="Shape_30" fill-rule="evenodd" clip-rule="evenodd" d="M46.6354 0H191.708C193.42 0 194.808 1.38785 194.808 3.09984V126.473C194.808 128.185 193.42 129.573 191.708 129.573H46.6354C44.9234 129.573 43.5356 128.185 43.5356 126.473V3.09984C43.5356 1.38785 44.9234 0 46.6354 0Z" fill="white"/>
<path id="Shape_31" fill-rule="evenodd" clip-rule="evenodd" d="M143.146 110.664C124.333 110.664 112.352 97.5994 112.352 75.9237V72.5586C112.352 50.7839 125.026 37.818 143.245 37.818C161.464 37.818 174.039 50.289 174.039 72.2616V75.5278C174.039 97.2035 162.256 110.664 143.146 110.664ZM143.648 98.2649C153.667 98.2649 158.23 90.621 158.23 75.7302V72.5535C158.23 58.2584 153.27 50.2174 143.45 50.2174C133.53 50.2174 128.471 57.8613 128.471 72.5535V75.9288C128.471 90.8195 133.729 98.2649 143.648 98.2649ZM78.9626 109.734V54.633L64.6145 64.0648V50.3639L80.9417 38.748H94.9929V109.734H78.9626Z" fill="#BDDEFF"/>
<path id="Shape_32" fill-rule="evenodd" clip-rule="evenodd" d="M46.6354 0H191.708C193.42 0 194.808 1.38785 194.808 3.09984V24.1787H43.5356V3.09984C43.5356 1.38785 44.9234 0 46.6354 0Z" fill="#EE3A33"/>
</g>
<g id="Stopwatch Copy">
<path id="Shape_33" fill-rule="evenodd" clip-rule="evenodd" d="M151.41 64.4767H159.16C160.872 64.4767 162.259 65.8645 162.259 67.5765V98.2649C162.259 99.9769 160.872 101.365 159.16 101.365H151.41C149.698 101.365 148.31 99.9769 148.31 98.2649V67.5765C148.31 65.8645 149.698 64.4767 151.41 64.4767Z" fill="#0B3B85"/>
<path id="Shape_34" fill-rule="evenodd" clip-rule="evenodd" d="M147.535 64.4767H163.654C166.137 64.4767 168.149 66.489 168.149 68.9714C168.149 71.4538 166.137 73.4662 163.654 73.4662H147.535C145.053 73.4662 143.04 71.4538 143.04 68.9714C143.04 66.489 145.053 64.4767 147.535 64.4767Z" fill="#0B3B85"/>
<circle id="Shape_35" cx="155.595" cy="169.716" r="86.3305" fill="#0B3B85"/>
<circle id="Shape_36" cx="155.843" cy="169.964" r="70.2056" fill="#66D4FF"/>
<path id="Shape_37" fill-rule="evenodd" clip-rule="evenodd" d="M155.299 240.168C120.874 236.238 94.1335 207.006 94.1335 171.529C94.1335 133.373 125.065 102.442 163.221 102.442C170.425 102.442 177.372 103.544 183.902 105.59C208.71 116.418 226.048 141.166 226.048 169.964C226.048 208.738 194.616 240.17 155.843 240.17C155.662 240.17 155.48 240.169 155.299 240.168Z" fill="white"/>
<path id="Shape_38" fill-rule="evenodd" clip-rule="evenodd" d="M156.835 104.465V110.044C156.835 112.111 153.735 112.111 153.735 110.044V104.465C153.735 102.398 156.835 102.398 156.835 104.465ZM187.072 140.666C188.867 138.597 191.999 138.375 194.069 140.17C196.138 141.964 196.36 145.097 194.565 147.166L158.876 188.31C157.318 190.107 154.703 190.544 152.645 189.353L134.976 179.123C132.605 177.751 131.796 174.716 133.168 172.346C134.541 169.975 137.575 169.166 139.946 170.539L154.068 178.715L187.072 140.666ZM156.835 235.588V230.008C156.835 227.941 153.735 227.941 153.735 230.008V235.588C153.735 237.654 156.835 237.654 156.835 235.588ZM89.7232 168.476H95.3029C97.3695 168.476 97.3695 171.576 95.3029 171.576H89.7232C87.6566 171.576 87.6566 168.476 89.7232 168.476ZM220.846 168.476H215.267C213.2 168.476 213.2 171.576 215.267 171.576H220.846C222.913 171.576 222.913 168.476 220.846 168.476ZM107.83 215.289L111.775 211.344C113.237 209.883 115.428 212.074 113.967 213.536L110.022 217.481C108.56 218.942 106.369 216.751 107.83 215.289ZM200.548 122.571L196.602 126.517C195.141 127.978 197.333 130.17 198.794 128.709L202.74 124.763C204.201 123.302 202.009 121.11 200.548 122.571ZM200.548 217.481L196.602 213.536C195.141 212.074 197.333 209.883 198.794 211.344L202.74 215.289C204.201 216.751 202.009 218.942 200.548 217.481ZM107.83 124.763L111.775 128.709C113.237 130.17 115.428 127.978 113.967 126.517L110.022 122.571C108.56 121.11 106.369 123.302 107.83 124.763Z" fill="#3B97FC"/>
</g>
<g id="Men Copy">
<path id="Shape_39" fill-rule="evenodd" clip-rule="evenodd" d="M77.3567 122.754L80.7202 129.641C82.4129 133.107 81.7901 137.258 79.1548 140.075L70.6395 149.177L66.1352 144.401L73.604 135.705L70.2374 129.573L77.3567 122.754Z" fill="#FF7070"/>
<path id="Shape_40" fill-rule="evenodd" clip-rule="evenodd" d="M61.4053 104.775L71.5823 109.489L80.4237 126.984L72.1421 134.223L61.4053 121.497L61.4053 104.775Z" fill="#23213A"/>
<path id="Shape_41" fill-rule="evenodd" clip-rule="evenodd" d="M71.1242 243.647L72.0541 250.348H65.3498L64.4199 243.647H71.1242Z" fill="#FE9F9F"/>
<path id="Shape_42" fill-rule="evenodd" clip-rule="evenodd" d="M45.9746 243.143V249.843H39.2703V243.143H45.9746Z" fill="#FE9F9F"/>
<path id="Shape_43" fill-rule="evenodd" clip-rule="evenodd" d="M64.0015 247.214L52.2199 208.806L48.4484 158.117L70.4113 157.574L66.7169 206.99L72.721 247.214H64.0015Z" fill="#241F4A"/>
<path id="Shape_44" fill-rule="evenodd" clip-rule="evenodd" d="M37.8986 247.112V198.586L40.7116 158.177L70.4331 157.687L53.4687 204.952L47.1209 247.112H37.8986Z" fill="#312C74"/>
<path id="Shape_45" fill-rule="evenodd" clip-rule="evenodd" d="M46.3471 249.099V253.875C46.3471 254.696 45.6809 255.363 44.8592 255.363H31.6518C31.1282 255.363 30.7037 254.843 30.7037 254.203C30.7037 251.709 32.5969 251.384 34.8446 250.588L39.3053 249.099H46.3471Z" fill="#23213A"/>
<path id="Shape_46" fill-rule="evenodd" clip-rule="evenodd" d="M72.3641 249.847V254.623C72.3641 255.445 71.6979 256.111 70.8762 256.111H57.6688C57.1452 256.111 56.7207 255.592 56.7207 254.951C56.7207 252.457 58.6139 252.132 60.8616 251.336L65.3223 249.847H72.3641Z" fill="#23213A"/>
<path id="Shape_47" fill-rule="evenodd" clip-rule="evenodd" d="M53.9875 106.275C52.4031 102.836 50.9468 101.098 49.6189 101.061C47.627 101.007 46.387 101.072 45.9174 99.1784C45.4478 97.2848 44.7283 96.8626 43.8426 96.7918C42.9568 96.7209 41.9151 95.8033 43.5791 93.7534C44.6885 92.3868 44.7499 90.1046 43.7633 86.9068C50.4985 81.4343 55.3219 81.238 58.2337 86.3178C61.1455 91.3976 62.1917 95.8381 61.3724 99.6394L63.3746 105.022L53.9875 106.275Z" fill="#FE9F9F"/>
<path id="Shape_48" fill-rule="evenodd" clip-rule="evenodd" d="M61.4625 99.5248C59.0621 100.363 57.5489 100.474 56.923 99.8574C55.9841 98.9328 55.1509 96.9617 55.0225 96.288C54.8941 95.6143 55.7137 95.6023 56.2809 95.3845C56.8481 95.1668 57.2387 93.5521 56.2826 92.8178C55.3265 92.0835 54.5712 92.5459 54.2402 92.8685C53.9091 93.1912 52.7724 93.0798 52.4969 91.4071C52.2213 89.7344 52.3771 88.0089 51.3446 88.4053C50.312 88.8017 44.2715 90.3592 42.4587 86.5489C40.646 82.7387 42.0712 79.6383 46.419 80.0253C50.7667 80.4122 51.8812 79.7932 54.8802 79.3638C57.8793 78.9344 60.9208 78.6529 63.3582 83.266C65.7956 87.8791 64.8084 91.0817 63.2588 93.6904C61.7092 96.2992 62.425 96.6415 62.4864 97.7218C62.5272 98.442 62.186 99.043 61.4625 99.5248Z" fill="#221E41"/>
<path id="Shape_49" fill-rule="evenodd" clip-rule="evenodd" d="M17.6635 127.727L0 120.523L6.91278 115.624L26.1765 122.147L17.6635 127.727Z" fill="white"/>
<path id="Shape_50" fill-rule="evenodd" clip-rule="evenodd" d="M58.0444 104.31C63.9045 102.162 70.3965 105.171 72.5445 111.031C73.0842 112.504 73.3115 114.072 73.212 115.637L70.2374 162.432L40.6913 158.233L44.5025 121.413C45.319 113.021 49.8329 107.319 58.0444 104.31Z" fill="#EE3A33"/>
<path id="Shape_51" fill-rule="evenodd" clip-rule="evenodd" d="M62.9278 126.522L55.4328 137.132L41.7331 145.647L42.3919 136.86L62.9278 126.522Z" fill="#221E41"/>
<path id="Shape_52" fill-rule="evenodd" clip-rule="evenodd" d="M54.3003 120.007L58.8441 130.213C51.3773 137.801 45.3566 141.533 40.7819 141.409C36.2073 141.285 28.9263 137.192 18.9389 129.131C17.6427 129.195 15.6832 129.195 13.0604 129.131C10.4376 129.068 8.47215 127.178 7.16415 123.461L13.805 124.623L12.832 121.63C13.7953 121.551 14.815 121.832 15.8911 122.473C16.9672 123.114 17.8511 124.063 18.543 125.32L40.3263 132.983L54.3003 120.007Z" fill="#FE9F9F"/>
<path id="Shape_53" fill-rule="evenodd" clip-rule="evenodd" d="M53.1565 165.241L52.6956 167.362L52.9985 167.427L53.4594 165.307L53.1565 165.241ZM51.5764 172.511L52.0372 170.391L52.3401 170.456L51.8793 172.577L51.5764 172.511ZM50.918 175.54L50.4571 177.661L50.7601 177.726L51.2209 175.606L50.918 175.54ZM49.3379 182.81L49.7988 180.69L50.1017 180.755L49.6408 182.876L49.3379 182.81ZM48.6796 185.839L48.2187 187.96L48.5216 188.025L48.9825 185.905L48.6796 185.839ZM47.0995 193.109L47.5603 190.989L47.8632 191.054L47.4024 193.175L47.0995 193.109ZM46.4411 196.138L45.9802 198.259L46.2832 198.324L46.744 196.204L46.4411 196.138ZM45.4533 203.515L45.5949 201.349L45.9042 201.37L45.7626 203.535L45.4533 203.515ZM45.2509 206.608L45.1093 208.773L45.4186 208.793L45.5603 206.628L45.2509 206.608ZM44.7654 214.032L44.907 211.866L45.2163 211.886L45.0747 214.052L44.7654 214.032ZM44.5631 217.125L44.4214 219.29L44.7308 219.31L44.8724 217.145L44.5631 217.125ZM44.0775 224.549L44.2191 222.383L44.5284 222.403L44.3868 224.569L44.0775 224.549ZM43.8752 227.642L43.7336 229.807L44.0429 229.827L44.1845 227.662L43.8752 227.642ZM43.3896 235.065L43.5312 232.9L43.8406 232.92L43.6989 235.086L43.3896 235.065ZM43.0457 240.324L43.1873 238.159L43.4966 238.179L43.355 240.344L43.0457 240.324Z" fill="#A587FF"/>
<path id="Shape_54" fill-rule="evenodd" clip-rule="evenodd" d="M54.7441 135.401L46.531 125.726C53.5922 117.157 58.9761 114.802 62.6826 118.661C66.3891 122.521 63.7429 128.1 54.7441 135.401Z" fill="#EE3A33"/>
</g>
</g>
</svg>
