<svg width="386" height="257" viewBox="0 0 386 257" fill="none" xmlns="http://www.w3.org/2000/svg">
<g id="Success">
<g id="Ornament Copy">
<path id="Shape" fill-rule="evenodd" clip-rule="evenodd" d="M294.08 32.033C294.08 32.7513 293.498 33.3336 292.78 33.3336C292.061 33.3336 291.479 32.7513 291.479 32.033C291.479 31.3147 292.061 30.7324 292.78 30.7324C293.498 30.7324 294.08 31.3147 294.08 32.033ZM294.08 26.8306C294.08 27.5489 293.498 28.1312 292.78 28.1312C292.061 28.1312 291.479 27.5489 291.479 26.8306C291.479 26.1123 292.061 25.53 292.78 25.53C293.498 25.53 294.08 26.1123 294.08 26.8306ZM294.08 21.6282C294.08 22.3465 293.498 22.9288 292.78 22.9288C292.061 22.9288 291.479 22.3465 291.479 21.6282C291.479 20.9099 292.061 20.3276 292.78 20.3276C293.498 20.3276 294.08 20.9099 294.08 21.6282ZM294.08 16.4257C294.08 17.1441 293.498 17.7264 292.78 17.7264C292.061 17.7264 291.479 17.1441 291.479 16.4257C291.479 15.7074 292.061 15.1251 292.78 15.1251C293.498 15.1251 294.08 15.7074 294.08 16.4257ZM294.08 11.2233C294.08 11.9416 293.498 12.5239 292.78 12.5239C292.061 12.5239 291.479 11.9416 291.479 11.2233C291.479 10.505 292.061 9.92272 292.78 9.92272C293.498 9.92272 294.08 10.505 294.08 11.2233ZM294.08 6.02091C294.08 6.73922 293.498 7.32152 292.78 7.32152C292.061 7.32152 291.479 6.73922 291.479 6.02091C291.479 5.30261 292.061 4.72031 292.78 4.72031C293.498 4.72031 294.08 5.30261 294.08 6.02091ZM299.283 32.033C299.283 32.7513 298.701 33.3336 297.982 33.3336C297.264 33.3336 296.682 32.7513 296.682 32.033C296.682 31.3147 297.264 30.7324 297.982 30.7324C298.701 30.7324 299.283 31.3147 299.283 32.033ZM299.283 26.8306C299.283 27.5489 298.701 28.1312 297.982 28.1312C297.264 28.1312 296.682 27.5489 296.682 26.8306C296.682 26.1123 297.264 25.53 297.982 25.53C298.701 25.53 299.283 26.1123 299.283 26.8306ZM299.283 21.6282C299.283 22.3465 298.701 22.9288 297.982 22.9288C297.264 22.9288 296.682 22.3465 296.682 21.6282C296.682 20.9099 297.264 20.3276 297.982 20.3276C298.701 20.3276 299.283 20.9099 299.283 21.6282ZM299.283 16.4257C299.283 17.1441 298.701 17.7264 297.982 17.7264C297.264 17.7264 296.682 17.1441 296.682 16.4257C296.682 15.7074 297.264 15.1251 297.982 15.1251C298.701 15.1251 299.283 15.7074 299.283 16.4257ZM299.283 11.2233C299.283 11.9416 298.701 12.5239 297.982 12.5239C297.264 12.5239 296.682 11.9416 296.682 11.2233C296.682 10.505 297.264 9.92272 297.982 9.92272C298.701 9.92272 299.283 10.505 299.283 11.2233ZM299.283 6.02091C299.283 6.73922 298.701 7.32152 297.982 7.32152C297.264 7.32152 296.682 6.73922 296.682 6.02091C296.682 5.30261 297.264 4.72031 297.982 4.72031C298.701 4.72031 299.283 5.30261 299.283 6.02091ZM304.486 32.033C304.486 32.7513 303.903 33.3336 303.185 33.3336C302.467 33.3336 301.884 32.7513 301.884 32.033C301.884 31.3147 302.467 30.7324 303.185 30.7324C303.903 30.7324 304.486 31.3147 304.486 32.033ZM304.486 26.8306C304.486 27.5489 303.903 28.1312 303.185 28.1312C302.467 28.1312 301.884 27.5489 301.884 26.8306C301.884 26.1123 302.467 25.53 303.185 25.53C303.903 25.53 304.486 26.1123 304.486 26.8306ZM304.486 21.6282C304.486 22.3465 303.903 22.9288 303.185 22.9288C302.467 22.9288 301.884 22.3465 301.884 21.6282C301.884 20.9099 302.467 20.3276 303.185 20.3276C303.903 20.3276 304.486 20.9099 304.486 21.6282ZM304.486 16.4257C304.486 17.1441 303.903 17.7264 303.185 17.7264C302.467 17.7264 301.884 17.1441 301.884 16.4257C301.884 15.7074 302.467 15.1251 303.185 15.1251C303.903 15.1251 304.486 15.7074 304.486 16.4257ZM304.486 11.2233C304.486 11.9416 303.903 12.5239 303.185 12.5239C302.467 12.5239 301.884 11.9416 301.884 11.2233C301.884 10.505 302.467 9.92272 303.185 9.92272C303.903 9.92272 304.486 10.505 304.486 11.2233ZM304.486 6.02091C304.486 6.73922 303.903 7.32152 303.185 7.32152C302.467 7.32152 301.884 6.73922 301.884 6.02091C301.884 5.30261 302.467 4.72031 303.185 4.72031C303.903 4.72031 304.486 5.30261 304.486 6.02091ZM309.688 32.033C309.688 32.7513 309.106 33.3336 308.388 33.3336C307.669 33.3336 307.087 32.7513 307.087 32.033C307.087 31.3147 307.669 30.7324 308.388 30.7324C309.106 30.7324 309.688 31.3147 309.688 32.033ZM309.688 26.8306C309.688 27.5489 309.106 28.1312 308.388 28.1312C307.669 28.1312 307.087 27.5489 307.087 26.8306C307.087 26.1123 307.669 25.53 308.388 25.53C309.106 25.53 309.688 26.1123 309.688 26.8306ZM309.688 21.6282C309.688 22.3465 309.106 22.9288 308.388 22.9288C307.669 22.9288 307.087 22.3465 307.087 21.6282C307.087 20.9099 307.669 20.3276 308.388 20.3276C309.106 20.3276 309.688 20.9099 309.688 21.6282ZM309.688 16.4257C309.688 17.1441 309.106 17.7264 308.388 17.7264C307.669 17.7264 307.087 17.1441 307.087 16.4257C307.087 15.7074 307.669 15.1251 308.388 15.1251C309.106 15.1251 309.688 15.7074 309.688 16.4257ZM309.688 11.2233C309.688 11.9416 309.106 12.5239 308.388 12.5239C307.669 12.5239 307.087 11.9416 307.087 11.2233C307.087 10.505 307.669 9.92272 308.388 9.92272C309.106 9.92272 309.688 10.505 309.688 11.2233ZM309.688 6.02091C309.688 6.73922 309.106 7.32152 308.388 7.32152C307.669 7.32152 307.087 6.73922 307.087 6.02091C307.087 5.30261 307.669 4.72031 308.388 4.72031C309.106 4.72031 309.688 5.30261 309.688 6.02091ZM314.891 32.033C314.891 32.7513 314.309 33.3336 313.59 33.3336C312.872 33.3336 312.29 32.7513 312.29 32.033C312.29 31.3147 312.872 30.7324 313.59 30.7324C314.309 30.7324 314.891 31.3147 314.891 32.033ZM314.891 26.8306C314.891 27.5489 314.309 28.1312 313.59 28.1312C312.872 28.1312 312.29 27.5489 312.29 26.8306C312.29 26.1123 312.872 25.53 313.59 25.53C314.309 25.53 314.891 26.1123 314.891 26.8306ZM314.891 21.6282C314.891 22.3465 314.309 22.9288 313.59 22.9288C312.872 22.9288 312.29 22.3465 312.29 21.6282C312.29 20.9099 312.872 20.3276 313.59 20.3276C314.309 20.3276 314.891 20.9099 314.891 21.6282ZM314.891 16.4257C314.891 17.1441 314.309 17.7264 313.59 17.7264C312.872 17.7264 312.29 17.1441 312.29 16.4257C312.29 15.7074 312.872 15.1251 313.59 15.1251C314.309 15.1251 314.891 15.7074 314.891 16.4257ZM314.891 11.2233C314.891 11.9416 314.309 12.5239 313.59 12.5239C312.872 12.5239 312.29 11.9416 312.29 11.2233C312.29 10.505 312.872 9.92272 313.59 9.92272C314.309 9.92272 314.891 10.505 314.891 11.2233ZM314.891 6.02091C314.891 6.73922 314.309 7.32152 313.59 7.32152C312.872 7.32152 312.29 6.73922 312.29 6.02091C312.29 5.30261 312.872 4.72031 313.59 4.72031C314.309 4.72031 314.891 5.30261 314.891 6.02091ZM320.094 32.033C320.094 32.7513 319.512 33.3336 318.793 33.3336C318.075 33.3336 317.493 32.7513 317.493 32.033C317.493 31.3147 318.075 30.7324 318.793 30.7324C319.512 30.7324 320.094 31.3147 320.094 32.033ZM320.094 26.8306C320.094 27.5489 319.512 28.1312 318.793 28.1312C318.075 28.1312 317.493 27.5489 317.493 26.8306C317.493 26.1123 318.075 25.53 318.793 25.53C319.512 25.53 320.094 26.1123 320.094 26.8306ZM320.094 21.6282C320.094 22.3465 319.512 22.9288 318.793 22.9288C318.075 22.9288 317.493 22.3465 317.493 21.6282C317.493 20.9099 318.075 20.3276 318.793 20.3276C319.512 20.3276 320.094 20.9099 320.094 21.6282ZM320.094 16.4257C320.094 17.1441 319.512 17.7264 318.793 17.7264C318.075 17.7264 317.493 17.1441 317.493 16.4257C317.493 15.7074 318.075 15.1251 318.793 15.1251C319.512 15.1251 320.094 15.7074 320.094 16.4257ZM320.094 11.2233C320.094 11.9416 319.512 12.5239 318.793 12.5239C318.075 12.5239 317.493 11.9416 317.493 11.2233C317.493 10.505 318.075 9.92272 318.793 9.92272C319.512 9.92272 320.094 10.505 320.094 11.2233ZM320.094 6.02091C320.094 6.73922 319.512 7.32152 318.793 7.32152C318.075 7.32152 317.493 6.73922 317.493 6.02091C317.493 5.30261 318.075 4.72031 318.793 4.72031C319.512 4.72031 320.094 5.30261 320.094 6.02091Z" fill="#CDCBDF"/>
<path id="Shape_2" fill-rule="evenodd" clip-rule="evenodd" d="M7.08046 23.8965H209.464C213.374 23.8965 216.544 27.0666 216.544 30.977V248.111C216.544 252.022 213.374 255.192 209.464 255.192H7.08046C3.17003 255.192 0 252.022 0 248.111V30.977C0 27.0666 3.17003 23.8965 7.08046 23.8965Z" fill="white"/>
<path id="Shape_3" fill-rule="evenodd" clip-rule="evenodd" d="M15.8524 155.77H203.862V243.391H15.8524V155.77Z" fill="#D5EAFF"/>
<path id="Shape_4" fill-rule="evenodd" clip-rule="evenodd" d="M15.931 41.5977H203.941V129.218H15.931V41.5977Z" fill="#D5EAFF"/>
<ellipse id="Shape_5" cx="90.6097" cy="241.185" rx="14.0199" ry="28.0657" transform="rotate(90 90.6097 241.185)" fill="#FC5274"/>
<ellipse id="Shape_6" cx="319.063" cy="152.629" rx="40.2701" ry="80.3489" transform="rotate(-180 319.063 152.629)" fill="#00ADFF"/>
<g id="Plant">
<path id="Shape_7" fill-rule="evenodd" clip-rule="evenodd" d="M333.224 204.7C340.292 177.232 357.47 167.579 384.757 175.739C382.435 188.159 376.91 197.73 368.18 204.451C359.45 211.172 347.798 211.255 333.224 204.7Z" fill="#EE342C"/>
<path id="Shape_8" d="M354.291 192.447L355.257 182.975C355.297 182.584 355.884 182.644 355.844 183.035L354.92 192.091C362.081 188.044 371.028 183.023 381.761 177.026C381.903 176.946 382.083 176.997 382.163 177.139C382.242 177.282 382.191 177.461 382.049 177.541C376.171 180.825 370.828 183.817 366.022 186.516L374.334 188.5C374.493 188.538 374.591 188.697 374.553 188.855C374.515 189.014 374.356 189.111 374.197 189.074L365.264 186.942C361.412 189.106 357.913 191.077 354.767 192.856C354.739 192.88 354.706 192.897 354.672 192.909C351.114 194.92 348.009 196.685 345.355 198.202L353.089 201.026C353.242 201.082 353.321 201.251 353.265 201.404C353.209 201.558 353.039 201.636 352.886 201.58L344.722 198.599C344.71 198.595 344.699 198.59 344.688 198.584C340.537 200.961 337.561 202.697 335.759 203.791C335.62 203.875 335.439 203.831 335.354 203.692C335.269 203.552 335.314 203.371 335.453 203.286C338.464 201.458 344.743 197.845 354.291 192.447Z" fill="white"/>
<path id="Shape_9" fill-rule="evenodd" clip-rule="evenodd" d="M336.408 212.983C321.984 188.563 327.304 169.59 352.369 156.065C359.51 166.489 362.37 177.164 360.95 188.089C359.53 199.015 351.349 207.313 336.408 212.983Z" fill="#FDA0A2"/>
<path id="Shape_10" d="M342.64 189.422L336.626 182.042C336.378 181.737 336.835 181.364 337.084 181.669L342.834 188.726C345.036 180.8 347.812 170.923 351.161 159.093C351.205 158.937 351.368 158.845 351.525 158.89C351.682 158.934 351.773 159.097 351.728 159.254C349.894 165.733 348.232 171.626 346.742 176.934L354.022 172.458C354.161 172.373 354.343 172.416 354.428 172.555C354.514 172.694 354.47 172.876 354.331 172.961L346.507 177.771C345.314 182.024 344.233 185.892 343.266 189.375C343.263 189.412 343.253 189.447 343.237 189.479C342.143 193.417 341.195 196.861 340.392 199.81L347.857 196.339C348.005 196.27 348.18 196.334 348.249 196.482C348.318 196.63 348.254 196.805 348.106 196.874L340.225 200.538C340.213 200.544 340.202 200.548 340.19 200.552C338.936 205.168 338.058 208.5 337.558 210.547C337.52 210.706 337.36 210.803 337.202 210.764C337.043 210.725 336.946 210.566 336.985 210.407C337.821 206.985 339.706 199.991 342.64 189.422Z" fill="white"/>
<path id="Shape_11" fill-rule="evenodd" clip-rule="evenodd" d="M321.571 223.13C335.507 198.428 354.598 193.549 378.844 208.494C373.387 219.89 365.572 227.704 355.401 231.937C345.229 236.17 333.952 233.234 321.571 223.13Z" fill="#FC5274"/>
<path id="Shape_12" d="M345.091 216.747L348.476 207.848C348.616 207.481 349.168 207.69 349.028 208.058L345.791 216.566C353.756 214.511 363.698 211.976 375.617 208.961C375.775 208.921 375.936 209.017 375.976 209.175C376.015 209.333 375.92 209.493 375.762 209.533C369.234 211.184 363.299 212.692 357.958 214.055L365.474 218.122C365.617 218.2 365.67 218.379 365.593 218.522C365.515 218.665 365.336 218.719 365.193 218.641L357.115 214.27C352.835 215.363 348.945 216.361 345.445 217.265C345.412 217.281 345.376 217.29 345.34 217.292C341.383 218.314 337.927 219.215 334.971 219.994L341.71 224.723C341.843 224.817 341.876 225.001 341.782 225.134C341.688 225.267 341.504 225.3 341.371 225.206L334.257 220.213C334.246 220.206 334.237 220.198 334.228 220.19C329.603 221.411 326.279 222.318 324.255 222.908C324.099 222.954 323.935 222.864 323.89 222.708C323.844 222.551 323.934 222.387 324.09 222.342C327.472 221.355 334.472 219.49 345.091 216.747Z" fill="white"/>
</g>
<ellipse id="Shape_13" cx="338.278" cy="232.924" rx="21.9854" ry="44.1442" transform="rotate(90 338.278 232.924)" fill="#FC5274"/>
</g>
<g id="Money Copy">
<circle id="Shape_14" cx="268.615" cy="36.1398" r="36.1398" fill="#EE342C"/>
<circle id="Shape_15" cx="268.615" cy="36.1399" r="29.3544" fill="white"/>
<path id="Shape_16" fill-rule="evenodd" clip-rule="evenodd" d="M267.395 56.0536V50.8021C260.116 50.298 257.003 46.3068 256.667 41.0133H262.893C263.188 43.45 264.071 45.4246 267.395 45.9287V37.8203C260.705 36.77 257.508 34.3333 257.508 28.7877C257.508 23.9563 261.379 20.3853 267.395 19.9651V16.2261H270.382V20.0072C276.104 20.5113 279.553 23.3681 280.058 28.7877H274.042C273.663 26.6031 272.612 25.2587 270.382 24.8386V32.3588C276.693 33.325 280.563 35.4256 280.563 41.2653C280.563 46.3068 277.029 50.34 270.382 50.8021V56.0536H267.395ZM274.368 41.7663C274.368 39.7433 273.489 38.7318 270.238 38.0575V45.728C272.786 45.3065 274.368 43.8314 274.368 41.7663ZM263.747 28.259C263.747 30.1862 264.464 31.2336 267.582 31.8621V24.7816C265.096 25.1168 263.747 26.4994 263.747 28.259Z" fill="#EE342C"/>
</g>
<g id="Dollar Copy">
<path id="Shape_17" fill-rule="evenodd" clip-rule="evenodd" d="M99.6878 149.043H269.648C271.603 149.043 273.188 150.628 273.188 152.583V251.759C273.188 253.714 271.603 255.299 269.648 255.299H99.6878C97.7326 255.299 96.1476 253.714 96.1476 251.759V152.583C96.1476 150.628 97.7326 149.043 99.6878 149.043Z" fill="#00ADFF"/>
<path id="Shape_18" fill-rule="evenodd" clip-rule="evenodd" d="M124.932 154.943H244.308C244.944 167.175 254.952 176.927 267.287 177.155V226.874C254.847 227.104 244.774 237.021 244.294 249.399L124.892 249.399C124.123 237.336 114.236 227.753 102.048 227.466L102.048 177.742C114.526 177.449 124.594 167.41 124.932 154.943V154.943Z" fill="#4BC4FC"/>
<circle id="Shape_19" cx="184.682" cy="202.088" r="32.1571" fill="#00ADFF"/>
<path id="Shape_20" fill-rule="evenodd" clip-rule="evenodd" d="M183.658 218.314V214.035C177.548 213.624 174.934 210.372 174.651 206.059H179.879C180.126 208.045 180.868 209.653 183.658 210.064V203.457C178.042 202.602 175.358 200.616 175.358 196.097C175.358 192.161 178.607 189.251 183.658 188.909V185.862H186.165V188.943C190.969 189.354 193.865 191.682 194.289 196.097H189.238C188.92 194.317 188.037 193.222 186.165 192.88V199.007C191.463 199.795 194.713 201.506 194.713 206.264C194.713 210.372 191.746 213.659 186.165 214.035V218.314H183.658ZM189.697 206.667C189.697 204.991 188.986 204.152 186.354 203.594V209.95C188.417 209.601 189.697 208.379 189.697 206.667ZM180.67 195.681C180.67 197.229 181.294 198.07 184.013 198.575V192.888C181.846 193.157 180.67 194.268 180.67 195.681Z" fill="#4BC4FC"/>
</g>
<g id="Thophy Copy">
<path id="Shape_21" fill-rule="evenodd" clip-rule="evenodd" d="M236.614 81.1303V153.41C236.614 156.669 233.973 159.31 230.714 159.31H199.274C183.468 159.31 169.576 148.832 165.234 133.634L154.994 97.7939C154.542 96.2125 154.313 94.5758 154.313 92.931C154.313 83.155 162.238 75.2299 172.014 75.2299H230.714C233.973 75.2299 236.614 77.8716 236.614 81.1303ZM306.23 75.2299H364.93C374.706 75.2299 382.631 83.155 382.631 92.931C382.631 94.5758 382.402 96.2125 381.95 97.7939L371.71 133.634C367.368 148.832 353.476 159.31 337.67 159.31H306.23C302.971 159.31 300.329 156.669 300.329 153.41V81.1303C300.329 77.8716 302.971 75.2299 306.23 75.2299ZM312.13 147.51H337.67C348.208 147.51 357.469 140.524 360.363 130.392L370.603 94.552C370.754 94.0248 370.83 93.4793 370.83 92.931C370.83 89.6723 368.189 87.0307 364.93 87.0307H312.13V147.51ZM166.114 92.931C166.114 89.6723 168.755 87.0307 172.014 87.0307H224.814V147.51H199.274C188.736 147.51 179.475 140.524 176.581 130.392L166.341 94.552C166.19 94.0248 166.114 93.4793 166.114 92.931ZM282.038 175.536H250.471V226.575H282.038V175.536Z" fill="#0737A3"/>
<path id="Shape_22" fill-rule="evenodd" clip-rule="evenodd" d="M244.571 213.004H287.939C304.232 213.004 317.441 226.212 317.441 242.506V255.192H215.069V242.506C215.069 226.212 228.277 213.004 244.571 213.004Z" fill="#84D6FC"/>
<path id="Shape_23" fill-rule="evenodd" clip-rule="evenodd" d="M265.222 213.004H287.939C304.232 213.004 317.441 226.212 317.441 242.506V255.192H235.72V242.506C235.72 226.212 248.929 213.004 265.222 213.004Z" fill="#3B97FC"/>
<path id="Shape_24" fill-rule="evenodd" clip-rule="evenodd" d="M213.299 247.816H319.211C319.862 247.816 320.391 248.344 320.391 248.996V254.012C320.391 254.663 319.862 255.192 319.211 255.192H213.299C212.647 255.192 212.119 254.663 212.119 254.012V248.996C212.119 248.344 212.647 247.816 213.299 247.816Z" fill="#0737A3"/>
<path id="Shape_25" fill-rule="evenodd" clip-rule="evenodd" d="M190.582 46.318H341.632C339.205 68.7355 336.255 93.1237 332.782 119.483C327.572 159.021 299.065 182.027 265.812 182.027C232.56 182.027 204.263 159.021 199.433 119.483C196.213 93.1237 193.263 68.7355 190.582 46.318Z" fill="#3B97FC"/>
<path id="Shape_26" fill-rule="evenodd" clip-rule="evenodd" d="M190.582 46.318L234.54 46.318C236.507 65.0026 238.474 87.8288 240.441 114.797C243.391 155.248 247.521 159.605 265.812 182.027C232.56 182.027 204.263 159.021 199.433 119.483C196.213 93.1237 193.263 68.7355 190.582 46.318Z" fill="#84D6FC"/>
<path id="Shape_27" fill-rule="evenodd" clip-rule="evenodd" d="M187.632 35.9923H344.582C347.841 35.9923 350.483 38.634 350.483 41.8927V56.6437C350.483 59.9024 347.841 62.5441 344.582 62.5441H187.632C184.374 62.5441 181.732 59.9024 181.732 56.6437V41.8927C181.732 38.634 184.374 35.9923 187.632 35.9923Z" fill="#0737A3"/>
<path id="Shape_28" fill-rule="evenodd" clip-rule="evenodd" d="M233.655 35.9923H344.582C347.841 35.9923 350.483 38.634 350.483 41.8927V56.6437C350.483 59.9024 347.841 62.5441 344.582 62.5441H236.015L233.655 35.9923Z" fill="#0737A3"/>
</g>
<g id="Credit card Copy">
<path id="Shape_29" fill-rule="evenodd" clip-rule="evenodd" d="M103.552 55.4636H196.483C198.438 55.4636 200.023 57.0486 200.023 59.0038V112.107C200.023 114.062 198.438 115.647 196.483 115.647H103.552C101.596 115.647 100.011 114.062 100.011 112.107V59.0038C100.011 57.0486 101.596 55.4636 103.552 55.4636Z" fill="#00ADFF"/>
<path id="Shape_30" fill-rule="evenodd" clip-rule="evenodd" d="M100.011 65.4942H200.023V77.59H100.011V65.4942ZM182.912 107.977C179.164 107.977 176.126 104.939 176.126 101.192C176.126 97.4441 179.164 94.4061 182.912 94.4061C186.659 94.4061 189.697 97.4441 189.697 101.192C189.697 104.939 186.659 107.977 182.912 107.977Z" fill="#211D41"/>
<path id="Shape_31" fill-rule="evenodd" clip-rule="evenodd" d="M107.977 94.4061H123.908V98.5364H107.977V94.4061ZM107.977 103.552H120.073V107.682H107.977V103.552ZM128.038 94.4061H148.1V98.5364H128.038V94.4061ZM123.908 103.552H138.069V107.682H123.908V103.552ZM176.126 107.977C172.379 107.977 169.341 104.939 169.341 101.192C169.341 97.4441 172.379 94.4061 176.126 94.4061C179.874 94.4061 182.912 97.4441 182.912 101.192C182.912 104.939 179.874 107.977 176.126 107.977Z" fill="white"/>
</g>
<g id="Men Copy">
<path id="Shape_32" fill-rule="evenodd" clip-rule="evenodd" d="M80.0096 216.839H86.3903V223.216H80.0096V216.839Z" fill="#FE9F9F"/>
<path id="Shape_33" fill-rule="evenodd" clip-rule="evenodd" d="M79.6552 222.507H86.357L90.6023 223.924C92.7416 224.682 94.5433 224.991 94.5433 227.365C94.5433 227.975 94.1393 228.469 93.641 228.469H81.0712C80.2892 228.469 79.6552 227.835 79.6552 227.053V222.507Z" fill="#EE342C"/>
<path id="Shape_34" fill-rule="evenodd" clip-rule="evenodd" d="M44.2528 245.161H50.6335V251.538H44.2528V245.161Z" fill="#FE9F9F"/>
<path id="Shape_35" fill-rule="evenodd" clip-rule="evenodd" d="M47.498 249.291C50.2679 249.291 52.5133 251.537 52.5133 254.307V255.293H42.4827V254.307C42.4827 251.537 44.7281 249.291 47.498 249.291Z" fill="#EE342C"/>
<path id="Shape_36" fill-rule="evenodd" clip-rule="evenodd" d="M70.6673 134.148L80.1919 131.997V144.743C80.1919 146.206 79.6487 147.616 78.6676 148.701L68.7394 159.678L64.8687 155.77L72.3106 144.859L70.6673 134.148Z" fill="#FE9F9F"/>
<path id="Shape_37" fill-rule="evenodd" clip-rule="evenodd" d="M63.8865 161.064L69.1227 164.04L87.4083 181.151C88.6665 182.328 89.3472 183.997 89.2715 185.718L87.7747 219.783H78.3935L75.4689 191.029L55.0251 180.294L52.2169 246.636H42.5543L35.4022 164.04L39.6579 155.77L63.8865 161.064Z" fill="#312C74"/>
<path id="Shape_38" fill-rule="evenodd" clip-rule="evenodd" d="M36.182 164.031L37.067 128.022L35.0934 135.036L23.4368 133.087C23.4368 133.087 24.8237 109.664 51.3917 108.83C77.9598 107.997 80.7429 133.831 80.7429 133.831L70.0451 135.571L68.4847 128.022L69.16 164.031H36.182Z" fill="#EE342C"/>
<path id="Shape_39" fill-rule="evenodd" clip-rule="evenodd" d="M64.3106 83.3251C65.8395 82.804 65.2275 88.0151 62.4831 89.8629C62.4839 90.3143 62.4723 90.6808 62.4723 90.9166V95.8345C62.4723 97.8833 61.553 100.162 59.7144 102.67L43.9287 102.976C41.4477 101.381 40.2072 98.9348 40.2072 95.6375C40.2072 90.6916 39.4055 84.599 43.0843 85.7737C43.2248 83.249 44.8272 81.71 47.8917 81.1568C52.4884 80.3269 55.2541 81.2136 59.055 82.5599C59.1815 82.6047 59.3034 82.6542 59.4208 82.7083C61.7577 83.4341 63.3877 83.6397 64.3106 83.3251Z" fill="#221E41"/>
<path id="Shape_40" fill-rule="evenodd" clip-rule="evenodd" d="M46.9756 101.373H55.7166L56.6246 110.604C56.6416 110.776 56.6501 110.949 56.6501 111.123C56.6501 114.052 54.2754 116.427 51.3461 116.427C51.1727 116.427 50.9994 116.418 50.8269 116.401C47.9116 116.115 45.7808 113.519 46.0676 110.604L46.9756 101.373Z" fill="#FF7272"/>
<path id="Shape_41" fill-rule="evenodd" clip-rule="evenodd" d="M42.0872 100.161C42.0872 100.161 43.4822 108.83 51.3804 108.83C59.2786 108.83 60.5618 100.161 60.5618 100.161C60.5618 100.161 62.6705 99.367 62.5176 97.7455C62.3648 96.124 61.4598 95.5422 59.8158 96.3654C59.8158 96.3654 59.8158 93.497 59.8158 91.7038C59.8158 91.7038 47.9893 94.6168 42.8825 89.8089C42.8825 89.8089 43.2094 95.3928 42.8825 95.9492C42.8825 95.9492 40.397 95.5349 40.148 97.383C39.899 99.2312 42.0872 100.161 42.0872 100.161Z" fill="#FE9F9F"/>
<path id="Shape_42" fill-rule="evenodd" clip-rule="evenodd" d="M33.9501 134.852L30.7822 146.509L42.4827 167.109L39.2233 171.111L23.4501 150.268C22.9802 149.647 22.7748 148.865 22.8789 148.094L24.8698 133.326L33.9501 134.852Z" fill="#FE9F9F"/>
</g>
</g>
</svg>
