<svg width="160" height="160" viewBox="0 0 160 160" fill="none" xmlns="http://www.w3.org/2000/svg">
<path d="M80 80C69 80 60 71 60 60C60 49 68.9 40 80 40C91 40 100 48.9 100 60C100 71.1 91.1 80 80 80ZM80 0C46.9 0 20 26.9 20 60C20 93.2 46.9 120 80 120C113.1 120 140 93.2 140 60.1C140 60.1 140 60.1 140 60C140 26.9 113.2 0 80 0Z" fill="#5C54FF"/>
<path fill-rule="evenodd" clip-rule="evenodd" d="M40 120C29 120 20 128.9 20 140C20 151 28.9 160 40 160C51 160 60 151.1 60 140C60 128.9 51.1 120 40 120Z" fill="#5C54FF"/>
</svg>
